solid OpenSCAD_Model
  facet normal 0.793354 -0.608761 0
    outer loop
      vertex 4.59627 -3.85672 1
      vertex 4.91491 -3.44146 0
      vertex 4.91491 -3.44146 1
    endloop
  endfacet
  facet normal 0.793354 -0.608761 0
    outer loop
      vertex 4.91491 -3.44146 0
      vertex 4.59627 -3.85672 1
      vertex 4.59627 -3.85672 0
    endloop
  endfacet
  facet normal 0.991445 0.130523 0
    outer loop
      vertex 5.97717 0.522934 1
      vertex 5.90885 1.04189 0
      vertex 5.90885 1.04189 1
    endloop
  endfacet
  facet normal 0.991445 0.130523 0
    outer loop
      vertex 5.90885 1.04189 0
      vertex 5.97717 0.522934 1
      vertex 5.97717 0.522934 0
    endloop
  endfacet
  facet normal 0.999048 0.043616 0
    outer loop
      vertex 6 0 1
      vertex 5.97717 0.522934 0
      vertex 5.97717 0.522934 1
    endloop
  endfacet
  facet normal 0.999048 0.043616 0
    outer loop
      vertex 5.97717 0.522934 0
      vertex 6 0 1
      vertex 6 0 0
    endloop
  endfacet
  facet normal 0.976292 0.216457 0
    outer loop
      vertex 5.90885 1.04189 1
      vertex 5.79555 1.55291 0
      vertex 5.79555 1.55291 1
    endloop
  endfacet
  facet normal 0.976292 0.216457 0
    outer loop
      vertex 5.79555 1.55291 0
      vertex 5.90885 1.04189 1
      vertex 5.90885 1.04189 0
    endloop
  endfacet
  facet normal -0.608761 -0.793354 0
    outer loop
      vertex -3.85672 -4.59627 0
      vertex -3.44146 -4.91491 1
      vertex -3.85672 -4.59627 1
    endloop
  endfacet
  facet normal -0.608761 -0.793354 -0
    outer loop
      vertex -3.44146 -4.91491 1
      vertex -3.85672 -4.59627 0
      vertex -3.44146 -4.91491 0
    endloop
  endfacet
  facet normal -0.216457 -0.976292 0
    outer loop
      vertex -1.55291 -5.79555 0
      vertex -1.04189 -5.90885 1
      vertex -1.55291 -5.79555 1
    endloop
  endfacet
  facet normal -0.216457 -0.976292 -0
    outer loop
      vertex -1.04189 -5.90885 1
      vertex -1.55291 -5.79555 0
      vertex -1.04189 -5.90885 0
    endloop
  endfacet
  facet normal 0.382668 -0.923886 0
    outer loop
      vertex 2.05212 -5.63815 0
      vertex 2.53571 -5.43785 1
      vertex 2.05212 -5.63815 1
    endloop
  endfacet
  facet normal 0.382668 -0.923886 0
    outer loop
      vertex 2.53571 -5.43785 1
      vertex 2.05212 -5.63815 0
      vertex 2.53571 -5.43785 0
    endloop
  endfacet
  facet normal -0.461758 -0.887006 0
    outer loop
      vertex -3 -5.19615 0
      vertex -2.53571 -5.43785 1
      vertex -3 -5.19615 1
    endloop
  endfacet
  facet normal -0.461758 -0.887006 -0
    outer loop
      vertex -2.53571 -5.43785 1
      vertex -3 -5.19615 0
      vertex -2.53571 -5.43785 0
    endloop
  endfacet
  facet normal -0.67559 -0.737278 0
    outer loop
      vertex -4.24264 -4.24264 0
      vertex -3.85672 -4.59627 1
      vertex -4.24264 -4.24264 1
    endloop
  endfacet
  facet normal -0.67559 -0.737278 -0
    outer loop
      vertex -3.85672 -4.59627 1
      vertex -4.24264 -4.24264 0
      vertex -3.85672 -4.59627 0
    endloop
  endfacet
  facet normal 0.953717 -0.300705 0
    outer loop
      vertex 5.63815 -2.05212 1
      vertex 5.79555 -1.55291 0
      vertex 5.79555 -1.55291 1
    endloop
  endfacet
  facet normal 0.953717 -0.300705 0
    outer loop
      vertex 5.79555 -1.55291 0
      vertex 5.63815 -2.05212 1
      vertex 5.63815 -2.05212 0
    endloop
  endfacet
  facet normal -0.953717 0.300705 0
    outer loop
      vertex -5.79555 1.55291 0
      vertex -5.63815 2.05212 1
      vertex -5.63815 2.05212 0
    endloop
  endfacet
  facet normal -0.953717 0.300705 0
    outer loop
      vertex -5.63815 2.05212 1
      vertex -5.79555 1.55291 0
      vertex -5.79555 1.55291 1
    endloop
  endfacet
  facet normal 0.130523 -0.991445 0
    outer loop
      vertex 0.522934 -5.97717 0
      vertex 1.04189 -5.90885 1
      vertex 0.522934 -5.97717 1
    endloop
  endfacet
  facet normal 0.130523 -0.991445 0
    outer loop
      vertex 1.04189 -5.90885 1
      vertex 0.522934 -5.97717 0
      vertex 1.04189 -5.90885 0
    endloop
  endfacet
  facet normal -0.737278 0.67559 0
    outer loop
      vertex -4.59627 3.85672 0
      vertex -4.24264 4.24264 1
      vertex -4.24264 4.24264 0
    endloop
  endfacet
  facet normal -0.737278 0.67559 0
    outer loop
      vertex -4.24264 4.24264 1
      vertex -4.59627 3.85672 0
      vertex -4.59627 3.85672 1
    endloop
  endfacet
  facet normal 0.537298 -0.843392 0
    outer loop
      vertex 3 -5.19615 0
      vertex 3.44146 -4.91491 1
      vertex 3 -5.19615 1
    endloop
  endfacet
  facet normal 0.537298 -0.843392 0
    outer loop
      vertex 3.44146 -4.91491 1
      vertex 3 -5.19615 0
      vertex 3.44146 -4.91491 0
    endloop
  endfacet
  facet normal 0 0 -1
    outer loop
      vertex 4.2 0 0
      vertex 6 0 0
      vertex 5.97717 -0.522934 0
    endloop
  endfacet
  facet normal 0 0 -1
    outer loop
      vertex 4.18402 -0.366054 0
      vertex 5.97717 -0.522934 0
      vertex 5.90885 -1.04189 0
    endloop
  endfacet
  facet normal 0 0 -1
    outer loop
      vertex 6 0 0
      vertex 4.2 0 0
      vertex 5.97717 0.522934 0
    endloop
  endfacet
  facet normal 0 0 -1
    outer loop
      vertex 4.13619 -0.729321 0
      vertex 5.90885 -1.04189 0
      vertex 5.79555 -1.55291 0
    endloop
  endfacet
  facet normal 0 0 -1
    outer loop
      vertex 4.18402 0.366054 0
      vertex 5.97717 0.522934 0
      vertex 4.2 0 0
    endloop
  endfacet
  facet normal 0 0 -1
    outer loop
      vertex 4.05689 -1.08704 0
      vertex 5.79555 -1.55291 0
      vertex 5.63815 -2.05212 0
    endloop
  endfacet
  facet normal -0 0 -1
    outer loop
      vertex 5.97717 0.522934 0
      vertex 4.18402 0.366054 0
      vertex 5.90885 1.04189 0
    endloop
  endfacet
  facet normal 0 0 -1
    outer loop
      vertex 3.94671 -1.43648 0
      vertex 5.63815 -2.05212 0
      vertex 5.43785 -2.53571 0
    endloop
  endfacet
  facet normal 0 0 -1
    outer loop
      vertex 4.13619 0.729321 0
      vertex 5.90885 1.04189 0
      vertex 4.18402 0.366054 0
    endloop
  endfacet
  facet normal 0 0 -1
    outer loop
      vertex 3.80649 -1.775 0
      vertex 5.43785 -2.53571 0
      vertex 5.19615 -3 0
    endloop
  endfacet
  facet normal -0 0 -1
    outer loop
      vertex 5.90885 1.04189 0
      vertex 4.13619 0.729321 0
      vertex 5.79555 1.55291 0
    endloop
  endfacet
  facet normal 0 0 -1
    outer loop
      vertex 3.63731 -2.1 0
      vertex 5.19615 -3 0
      vertex 4.91491 -3.44146 0
    endloop
  endfacet
  facet normal 0 0 -1
    outer loop
      vertex 4.05689 1.08704 0
      vertex 5.79555 1.55291 0
      vertex 4.13619 0.729321 0
    endloop
  endfacet
  facet normal 0 0 -1
    outer loop
      vertex 3.44044 -2.40902 0
      vertex 4.91491 -3.44146 0
      vertex 4.59627 -3.85672 0
    endloop
  endfacet
  facet normal -0 0 -1
    outer loop
      vertex 5.79555 1.55291 0
      vertex 4.05689 1.08704 0
      vertex 5.63815 2.05212 0
    endloop
  endfacet
  facet normal 0 0 -1
    outer loop
      vertex 3.21739 -2.69971 0
      vertex 4.59627 -3.85672 0
      vertex 4.24264 -4.24264 0
    endloop
  endfacet
  facet normal 0 0 -1
    outer loop
      vertex 3.94671 1.43648 0
      vertex 5.63815 2.05212 0
      vertex 4.05689 1.08704 0
    endloop
  endfacet
  facet normal -0 0 -1
    outer loop
      vertex 5.63815 2.05212 0
      vertex 3.94671 1.43648 0
      vertex 5.43785 2.53571 0
    endloop
  endfacet
  facet normal 0 0 -1
    outer loop
      vertex 5.97717 -0.522934 0
      vertex 4.18402 -0.366054 0
      vertex 4.2 0 0
    endloop
  endfacet
  facet normal 0 0 -1
    outer loop
      vertex 5.90885 -1.04189 0
      vertex 4.13619 -0.729321 0
      vertex 4.18402 -0.366054 0
    endloop
  endfacet
  facet normal 0 0 -1
    outer loop
      vertex 5.79555 -1.55291 0
      vertex 4.05689 -1.08704 0
      vertex 4.13619 -0.729321 0
    endloop
  endfacet
  facet normal 0 0 -1
    outer loop
      vertex 5.63815 -2.05212 0
      vertex 3.94671 -1.43648 0
      vertex 4.05689 -1.08704 0
    endloop
  endfacet
  facet normal 0 0 -1
    outer loop
      vertex 2.96985 -2.96985 0
      vertex 4.24264 -4.24264 0
      vertex 3.85672 -4.59627 0
    endloop
  endfacet
  facet normal 0 0 -1
    outer loop
      vertex 5.43785 -2.53571 0
      vertex 3.80649 -1.775 0
      vertex 3.94671 -1.43648 0
    endloop
  endfacet
  facet normal 0 0 -1
    outer loop
      vertex 5.19615 -3 0
      vertex 3.63731 -2.1 0
      vertex 3.80649 -1.775 0
    endloop
  endfacet
  facet normal 0 0 -1
    outer loop
      vertex 2.69971 -3.21739 0
      vertex 3.85672 -4.59627 0
      vertex 3.44146 -4.91491 0
    endloop
  endfacet
  facet normal 0 0 -1
    outer loop
      vertex 4.91491 -3.44146 0
      vertex 3.44044 -2.40902 0
      vertex 3.63731 -2.1 0
    endloop
  endfacet
  facet normal 0 0 -1
    outer loop
      vertex 4.59627 -3.85672 0
      vertex 3.21739 -2.69971 0
      vertex 3.44044 -2.40902 0
    endloop
  endfacet
  facet normal 0 0 -1
    outer loop
      vertex 2.40902 -3.44044 0
      vertex 3.44146 -4.91491 0
      vertex 3 -5.19615 0
    endloop
  endfacet
  facet normal 0 0 -1
    outer loop
      vertex 4.24264 -4.24264 0
      vertex 2.96985 -2.96985 0
      vertex 3.21739 -2.69971 0
    endloop
  endfacet
  facet normal 0 0 -1
    outer loop
      vertex 3.85672 -4.59627 0
      vertex 2.69971 -3.21739 0
      vertex 2.96985 -2.96985 0
    endloop
  endfacet
  facet normal 0 0 -1
    outer loop
      vertex 2.1 -3.63731 0
      vertex 3 -5.19615 0
      vertex 2.53571 -5.43785 0
    endloop
  endfacet
  facet normal 0 0 -1
    outer loop
      vertex 3.44146 -4.91491 0
      vertex 2.40902 -3.44044 0
      vertex 2.69971 -3.21739 0
    endloop
  endfacet
  facet normal 0 0 -1
    outer loop
      vertex 3 -5.19615 0
      vertex 2.1 -3.63731 0
      vertex 2.40902 -3.44044 0
    endloop
  endfacet
  facet normal 0 0 -1
    outer loop
      vertex 1.775 -3.80649 0
      vertex 2.53571 -5.43785 0
      vertex 2.05212 -5.63815 0
    endloop
  endfacet
  facet normal 0 0 -1
    outer loop
      vertex 2.53571 -5.43785 0
      vertex 1.775 -3.80649 0
      vertex 2.1 -3.63731 0
    endloop
  endfacet
  facet normal 0 0 -1
    outer loop
      vertex 1.43648 -3.94671 0
      vertex 2.05212 -5.63815 0
      vertex 1.55291 -5.79555 0
    endloop
  endfacet
  facet normal 0 0 -1
    outer loop
      vertex 2.05212 -5.63815 0
      vertex 1.43648 -3.94671 0
      vertex 1.775 -3.80649 0
    endloop
  endfacet
  facet normal 0 0 -1
    outer loop
      vertex 1.55291 -5.79555 0
      vertex 1.08704 -4.05689 0
      vertex 1.43648 -3.94671 0
    endloop
  endfacet
  facet normal 0 0 -1
    outer loop
      vertex 1.04189 -5.90885 0
      vertex 1.08704 -4.05689 0
      vertex 1.55291 -5.79555 0
    endloop
  endfacet
  facet normal 0 0 -1
    outer loop
      vertex 1.04189 -5.90885 0
      vertex 0.729321 -4.13619 0
      vertex 1.08704 -4.05689 0
    endloop
  endfacet
  facet normal 0 0 -1
    outer loop
      vertex 0.522934 -5.97717 0
      vertex 0.729321 -4.13619 0
      vertex 1.04189 -5.90885 0
    endloop
  endfacet
  facet normal 0 0 -1
    outer loop
      vertex 0.522934 -5.97717 0
      vertex 0.366054 -4.18402 0
      vertex 0.729321 -4.13619 0
    endloop
  endfacet
  facet normal 0 0 -1
    outer loop
      vertex 0 -6 0
      vertex 0.366054 -4.18402 0
      vertex 0.522934 -5.97717 0
    endloop
  endfacet
  facet normal 0 0 -1
    outer loop
      vertex 0 -6 0
      vertex 0 -4.2 0
      vertex 0.366054 -4.18402 0
    endloop
  endfacet
  facet normal 0 0 -1
    outer loop
      vertex 0 -6 0
      vertex -0.366054 -4.18402 0
      vertex 0 -4.2 0
    endloop
  endfacet
  facet normal 0 0 -1
    outer loop
      vertex -0.522934 -5.97717 0
      vertex -0.366054 -4.18402 0
      vertex 0 -6 0
    endloop
  endfacet
  facet normal 0 0 -1
    outer loop
      vertex -0.522934 -5.97717 0
      vertex -0.729321 -4.13619 0
      vertex -0.366054 -4.18402 0
    endloop
  endfacet
  facet normal 0 0 -1
    outer loop
      vertex -1.04189 -5.90885 0
      vertex -0.729321 -4.13619 0
      vertex -0.522934 -5.97717 0
    endloop
  endfacet
  facet normal 0 0 -1
    outer loop
      vertex -1.04189 -5.90885 0
      vertex -1.08704 -4.05689 0
      vertex -0.729321 -4.13619 0
    endloop
  endfacet
  facet normal 0 0 -1
    outer loop
      vertex -1.55291 -5.79555 0
      vertex -1.08704 -4.05689 0
      vertex -1.04189 -5.90885 0
    endloop
  endfacet
  facet normal -0 0 -1
    outer loop
      vertex -1.08704 -4.05689 0
      vertex -1.55291 -5.79555 0
      vertex -1.43648 -3.94671 0
    endloop
  endfacet
  facet normal 0 0 -1
    outer loop
      vertex -2.05212 -5.63815 0
      vertex -1.43648 -3.94671 0
      vertex -1.55291 -5.79555 0
    endloop
  endfacet
  facet normal -0 0 -1
    outer loop
      vertex -1.43648 -3.94671 0
      vertex -2.05212 -5.63815 0
      vertex -1.775 -3.80649 0
    endloop
  endfacet
  facet normal 0 0 -1
    outer loop
      vertex -2.53571 -5.43785 0
      vertex -1.775 -3.80649 0
      vertex -2.05212 -5.63815 0
    endloop
  endfacet
  facet normal -0 0 -1
    outer loop
      vertex -1.775 -3.80649 0
      vertex -2.53571 -5.43785 0
      vertex -2.1 -3.63731 0
    endloop
  endfacet
  facet normal 0 0 -1
    outer loop
      vertex -3 -5.19615 0
      vertex -2.1 -3.63731 0
      vertex -2.53571 -5.43785 0
    endloop
  endfacet
  facet normal -0 0 -1
    outer loop
      vertex -2.1 -3.63731 0
      vertex -3 -5.19615 0
      vertex -2.40902 -3.44044 0
    endloop
  endfacet
  facet normal 0 0 -1
    outer loop
      vertex -3.44146 -4.91491 0
      vertex -2.40902 -3.44044 0
      vertex -3 -5.19615 0
    endloop
  endfacet
  facet normal -0 0 -1
    outer loop
      vertex -2.40902 -3.44044 0
      vertex -3.44146 -4.91491 0
      vertex -2.69971 -3.21739 0
    endloop
  endfacet
  facet normal 0 0 -1
    outer loop
      vertex -3.85672 -4.59627 0
      vertex -2.69971 -3.21739 0
      vertex -3.44146 -4.91491 0
    endloop
  endfacet
  facet normal -0 0 -1
    outer loop
      vertex -2.69971 -3.21739 0
      vertex -3.85672 -4.59627 0
      vertex -2.96985 -2.96985 0
    endloop
  endfacet
  facet normal 0 0 -1
    outer loop
      vertex -4.24264 -4.24264 0
      vertex -2.96985 -2.96985 0
      vertex -3.85672 -4.59627 0
    endloop
  endfacet
  facet normal -0 0 -1
    outer loop
      vertex -2.96985 -2.96985 0
      vertex -4.24264 -4.24264 0
      vertex -3.21739 -2.69971 0
    endloop
  endfacet
  facet normal 0 0 -1
    outer loop
      vertex -4.59627 -3.85672 0
      vertex -3.21739 -2.69971 0
      vertex -4.24264 -4.24264 0
    endloop
  endfacet
  facet normal -0 0 -1
    outer loop
      vertex -3.21739 -2.69971 0
      vertex -4.59627 -3.85672 0
      vertex -3.44044 -2.40902 0
    endloop
  endfacet
  facet normal 0 0 -1
    outer loop
      vertex -4.91491 -3.44146 0
      vertex -3.44044 -2.40902 0
      vertex -4.59627 -3.85672 0
    endloop
  endfacet
  facet normal -0 0 -1
    outer loop
      vertex -3.44044 -2.40902 0
      vertex -4.91491 -3.44146 0
      vertex -3.63731 -2.1 0
    endloop
  endfacet
  facet normal 0 0 -1
    outer loop
      vertex -5.19615 -3 0
      vertex -3.63731 -2.1 0
      vertex -4.91491 -3.44146 0
    endloop
  endfacet
  facet normal -0 0 -1
    outer loop
      vertex -3.63731 -2.1 0
      vertex -5.19615 -3 0
      vertex -3.80649 -1.775 0
    endloop
  endfacet
  facet normal -0 0 -1
    outer loop
      vertex -3.80649 -1.775 0
      vertex -5.43785 -2.53571 0
      vertex -3.94671 -1.43648 0
    endloop
  endfacet
  facet normal 0 0 -1
    outer loop
      vertex -5.43785 -2.53571 0
      vertex -3.80649 -1.775 0
      vertex -5.19615 -3 0
    endloop
  endfacet
  facet normal 0 0 -1
    outer loop
      vertex 3.80649 1.775 0
      vertex 5.43785 2.53571 0
      vertex 3.94671 1.43648 0
    endloop
  endfacet
  facet normal -0 0 -1
    outer loop
      vertex 5.43785 2.53571 0
      vertex 3.80649 1.775 0
      vertex 5.19615 3 0
    endloop
  endfacet
  facet normal 0 0 -1
    outer loop
      vertex 3.63731 2.1 0
      vertex 5.19615 3 0
      vertex 3.80649 1.775 0
    endloop
  endfacet
  facet normal -0 0 -1
    outer loop
      vertex 5.19615 3 0
      vertex 3.63731 2.1 0
      vertex 4.91491 3.44146 0
    endloop
  endfacet
  facet normal 0 0 -1
    outer loop
      vertex 3.44044 2.40902 0
      vertex 4.91491 3.44146 0
      vertex 3.63731 2.1 0
    endloop
  endfacet
  facet normal -0 0 -1
    outer loop
      vertex 4.91491 3.44146 0
      vertex 3.44044 2.40902 0
      vertex 4.59627 3.85672 0
    endloop
  endfacet
  facet normal 0 0 -1
    outer loop
      vertex 3.21739 2.69971 0
      vertex 4.59627 3.85672 0
      vertex 3.44044 2.40902 0
    endloop
  endfacet
  facet normal -0 0 -1
    outer loop
      vertex 4.59627 3.85672 0
      vertex 3.21739 2.69971 0
      vertex 4.24264 4.24264 0
    endloop
  endfacet
  facet normal 0 0 -1
    outer loop
      vertex 2.96985 2.96985 0
      vertex 4.24264 4.24264 0
      vertex 3.21739 2.69971 0
    endloop
  endfacet
  facet normal -0 0 -1
    outer loop
      vertex 4.24264 4.24264 0
      vertex 2.96985 2.96985 0
      vertex 3.85672 4.59627 0
    endloop
  endfacet
  facet normal 0 0 -1
    outer loop
      vertex 2.69971 3.21739 0
      vertex 3.85672 4.59627 0
      vertex 2.96985 2.96985 0
    endloop
  endfacet
  facet normal -0 0 -1
    outer loop
      vertex 3.85672 4.59627 0
      vertex 2.69971 3.21739 0
      vertex 3.44146 4.91491 0
    endloop
  endfacet
  facet normal 0 0 -1
    outer loop
      vertex 2.40902 3.44044 0
      vertex 3.44146 4.91491 0
      vertex 2.69971 3.21739 0
    endloop
  endfacet
  facet normal -0 0 -1
    outer loop
      vertex 3.44146 4.91491 0
      vertex 2.40902 3.44044 0
      vertex 3 5.19615 0
    endloop
  endfacet
  facet normal 0 0 -1
    outer loop
      vertex 2.1 3.63731 0
      vertex 3 5.19615 0
      vertex 2.40902 3.44044 0
    endloop
  endfacet
  facet normal -0 0 -1
    outer loop
      vertex 3 5.19615 0
      vertex 2.1 3.63731 0
      vertex 2.53571 5.43785 0
    endloop
  endfacet
  facet normal 0 0 -1
    outer loop
      vertex 1.775 3.80649 0
      vertex 2.53571 5.43785 0
      vertex 2.1 3.63731 0
    endloop
  endfacet
  facet normal -0 0 -1
    outer loop
      vertex 2.53571 5.43785 0
      vertex 1.775 3.80649 0
      vertex 2.05212 5.63815 0
    endloop
  endfacet
  facet normal 0 0 -1
    outer loop
      vertex 1.43648 3.94671 0
      vertex 2.05212 5.63815 0
      vertex 1.775 3.80649 0
    endloop
  endfacet
  facet normal -0 0 -1
    outer loop
      vertex 2.05212 5.63815 0
      vertex 1.43648 3.94671 0
      vertex 1.55291 5.79555 0
    endloop
  endfacet
  facet normal 0 0 -1
    outer loop
      vertex 1.08704 4.05689 0
      vertex 1.55291 5.79555 0
      vertex 1.43648 3.94671 0
    endloop
  endfacet
  facet normal 0 0 -1
    outer loop
      vertex 1.08704 4.05689 0
      vertex 1.04189 5.90885 0
      vertex 1.55291 5.79555 0
    endloop
  endfacet
  facet normal 0 0 -1
    outer loop
      vertex 0.729321 4.13619 0
      vertex 1.04189 5.90885 0
      vertex 1.08704 4.05689 0
    endloop
  endfacet
  facet normal 0 0 -1
    outer loop
      vertex 0.729321 4.13619 0
      vertex 0.522934 5.97717 0
      vertex 1.04189 5.90885 0
    endloop
  endfacet
  facet normal 0 0 -1
    outer loop
      vertex 0.366054 4.18402 0
      vertex 0.522934 5.97717 0
      vertex 0.729321 4.13619 0
    endloop
  endfacet
  facet normal 0 0 -1
    outer loop
      vertex 0 4.2 0
      vertex 0.522934 5.97717 0
      vertex 0.366054 4.18402 0
    endloop
  endfacet
  facet normal 0 0 -1
    outer loop
      vertex 0 4.2 0
      vertex 0 6 0
      vertex 0.522934 5.97717 0
    endloop
  endfacet
  facet normal 0 0 -1
    outer loop
      vertex -0.366054 4.18402 0
      vertex 0 6 0
      vertex 0 4.2 0
    endloop
  endfacet
  facet normal 0 0 -1
    outer loop
      vertex -0.366054 4.18402 0
      vertex -0.522934 5.97717 0
      vertex 0 6 0
    endloop
  endfacet
  facet normal 0 0 -1
    outer loop
      vertex -0.729321 4.13619 0
      vertex -0.522934 5.97717 0
      vertex -0.366054 4.18402 0
    endloop
  endfacet
  facet normal 0 0 -1
    outer loop
      vertex -0.729321 4.13619 0
      vertex -1.04189 5.90885 0
      vertex -0.522934 5.97717 0
    endloop
  endfacet
  facet normal 0 0 -1
    outer loop
      vertex -1.08704 4.05689 0
      vertex -1.04189 5.90885 0
      vertex -0.729321 4.13619 0
    endloop
  endfacet
  facet normal 0 0 -1
    outer loop
      vertex -1.55291 5.79555 0
      vertex -1.08704 4.05689 0
      vertex -1.43648 3.94671 0
    endloop
  endfacet
  facet normal 0 0 -1
    outer loop
      vertex -1.08704 4.05689 0
      vertex -1.55291 5.79555 0
      vertex -1.04189 5.90885 0
    endloop
  endfacet
  facet normal 0 0 -1
    outer loop
      vertex -2.05212 5.63815 0
      vertex -1.43648 3.94671 0
      vertex -1.775 3.80649 0
    endloop
  endfacet
  facet normal 0 0 -1
    outer loop
      vertex -1.43648 3.94671 0
      vertex -2.05212 5.63815 0
      vertex -1.55291 5.79555 0
    endloop
  endfacet
  facet normal 0 0 -1
    outer loop
      vertex -2.53571 5.43785 0
      vertex -1.775 3.80649 0
      vertex -2.1 3.63731 0
    endloop
  endfacet
  facet normal 0 0 -1
    outer loop
      vertex -3 5.19615 0
      vertex -2.1 3.63731 0
      vertex -2.40902 3.44044 0
    endloop
  endfacet
  facet normal 0 0 -1
    outer loop
      vertex -1.775 3.80649 0
      vertex -2.53571 5.43785 0
      vertex -2.05212 5.63815 0
    endloop
  endfacet
  facet normal 0 0 -1
    outer loop
      vertex -3.44146 4.91491 0
      vertex -2.40902 3.44044 0
      vertex -2.69971 3.21739 0
    endloop
  endfacet
  facet normal 0 0 -1
    outer loop
      vertex -3.85672 4.59627 0
      vertex -2.69971 3.21739 0
      vertex -2.96985 2.96985 0
    endloop
  endfacet
  facet normal 0 0 -1
    outer loop
      vertex -2.1 3.63731 0
      vertex -3 5.19615 0
      vertex -2.53571 5.43785 0
    endloop
  endfacet
  facet normal 0 0 -1
    outer loop
      vertex -4.24264 4.24264 0
      vertex -2.96985 2.96985 0
      vertex -3.21739 2.69971 0
    endloop
  endfacet
  facet normal 0 0 -1
    outer loop
      vertex -4.59627 3.85672 0
      vertex -3.21739 2.69971 0
      vertex -3.44044 2.40902 0
    endloop
  endfacet
  facet normal 0 0 -1
    outer loop
      vertex -2.40902 3.44044 0
      vertex -3.44146 4.91491 0
      vertex -3 5.19615 0
    endloop
  endfacet
  facet normal 0 0 -1
    outer loop
      vertex -4.91491 3.44146 0
      vertex -3.44044 2.40902 0
      vertex -3.63731 2.1 0
    endloop
  endfacet
  facet normal 0 0 -1
    outer loop
      vertex -5.19615 3 0
      vertex -3.63731 2.1 0
      vertex -3.80649 1.775 0
    endloop
  endfacet
  facet normal 0 0 -1
    outer loop
      vertex -2.69971 3.21739 0
      vertex -3.85672 4.59627 0
      vertex -3.44146 4.91491 0
    endloop
  endfacet
  facet normal 0 0 -1
    outer loop
      vertex -5.43785 2.53571 0
      vertex -3.80649 1.775 0
      vertex -3.94671 1.43648 0
    endloop
  endfacet
  facet normal 0 0 -1
    outer loop
      vertex -5.63815 2.05212 0
      vertex -3.94671 1.43648 0
      vertex -4.05689 1.08704 0
    endloop
  endfacet
  facet normal 0 0 -1
    outer loop
      vertex -5.79555 1.55291 0
      vertex -4.05689 1.08704 0
      vertex -4.13619 0.729321 0
    endloop
  endfacet
  facet normal 0 0 -1
    outer loop
      vertex -5.90885 1.04189 0
      vertex -4.13619 0.729321 0
      vertex -4.18402 0.366054 0
    endloop
  endfacet
  facet normal 0 0 -1
    outer loop
      vertex -2.96985 2.96985 0
      vertex -4.24264 4.24264 0
      vertex -3.85672 4.59627 0
    endloop
  endfacet
  facet normal 0 0 -1
    outer loop
      vertex -5.97717 0.522934 0
      vertex -4.18402 0.366054 0
      vertex -4.2 0 0
    endloop
  endfacet
  facet normal 0 0 -1
    outer loop
      vertex -5.63815 -2.05212 0
      vertex -3.94671 -1.43648 0
      vertex -5.43785 -2.53571 0
    endloop
  endfacet
  facet normal -0 0 -1
    outer loop
      vertex -3.94671 -1.43648 0
      vertex -5.63815 -2.05212 0
      vertex -4.05689 -1.08704 0
    endloop
  endfacet
  facet normal 0 0 -1
    outer loop
      vertex -3.21739 2.69971 0
      vertex -4.59627 3.85672 0
      vertex -4.24264 4.24264 0
    endloop
  endfacet
  facet normal 0 0 -1
    outer loop
      vertex -5.79555 -1.55291 0
      vertex -4.05689 -1.08704 0
      vertex -5.63815 -2.05212 0
    endloop
  endfacet
  facet normal 0 0 -1
    outer loop
      vertex -3.44044 2.40902 0
      vertex -4.91491 3.44146 0
      vertex -4.59627 3.85672 0
    endloop
  endfacet
  facet normal -0 0 -1
    outer loop
      vertex -4.05689 -1.08704 0
      vertex -5.79555 -1.55291 0
      vertex -4.13619 -0.729321 0
    endloop
  endfacet
  facet normal 0 0 -1
    outer loop
      vertex -3.63731 2.1 0
      vertex -5.19615 3 0
      vertex -4.91491 3.44146 0
    endloop
  endfacet
  facet normal 0 0 -1
    outer loop
      vertex -5.90885 -1.04189 0
      vertex -4.13619 -0.729321 0
      vertex -5.79555 -1.55291 0
    endloop
  endfacet
  facet normal 0 0 -1
    outer loop
      vertex -3.80649 1.775 0
      vertex -5.43785 2.53571 0
      vertex -5.19615 3 0
    endloop
  endfacet
  facet normal -0 0 -1
    outer loop
      vertex -4.13619 -0.729321 0
      vertex -5.90885 -1.04189 0
      vertex -4.18402 -0.366054 0
    endloop
  endfacet
  facet normal 0 0 -1
    outer loop
      vertex -3.94671 1.43648 0
      vertex -5.63815 2.05212 0
      vertex -5.43785 2.53571 0
    endloop
  endfacet
  facet normal 0 0 -1
    outer loop
      vertex -5.97717 -0.522934 0
      vertex -4.18402 -0.366054 0
      vertex -5.90885 -1.04189 0
    endloop
  endfacet
  facet normal 0 0 -1
    outer loop
      vertex -4.05689 1.08704 0
      vertex -5.79555 1.55291 0
      vertex -5.63815 2.05212 0
    endloop
  endfacet
  facet normal -0 0 -1
    outer loop
      vertex -4.18402 -0.366054 0
      vertex -5.97717 -0.522934 0
      vertex -4.2 0 0
    endloop
  endfacet
  facet normal 0 0 -1
    outer loop
      vertex -4.13619 0.729321 0
      vertex -5.90885 1.04189 0
      vertex -5.79555 1.55291 0
    endloop
  endfacet
  facet normal 0 0 -1
    outer loop
      vertex -6 0 0
      vertex -4.2 0 0
      vertex -5.97717 -0.522934 0
    endloop
  endfacet
  facet normal 0 0 -1
    outer loop
      vertex -4.18402 0.366054 0
      vertex -5.97717 0.522934 0
      vertex -5.90885 1.04189 0
    endloop
  endfacet
  facet normal 0 0 -1
    outer loop
      vertex -4.2 0 0
      vertex -6 0 0
      vertex -5.97717 0.522934 0
    endloop
  endfacet
  facet normal 0.382668 0.923886 -0
    outer loop
      vertex 2.53571 5.43785 0
      vertex 2.05212 5.63815 1
      vertex 2.53571 5.43785 1
    endloop
  endfacet
  facet normal 0.382668 0.923886 0
    outer loop
      vertex 2.05212 5.63815 1
      vertex 2.53571 5.43785 0
      vertex 2.05212 5.63815 0
    endloop
  endfacet
  facet normal -0.608761 0.793354 0
    outer loop
      vertex -3.44146 4.91491 0
      vertex -3.85672 4.59627 1
      vertex -3.44146 4.91491 1
    endloop
  endfacet
  facet normal -0.608761 0.793354 0
    outer loop
      vertex -3.85672 4.59627 1
      vertex -3.44146 4.91491 0
      vertex -3.85672 4.59627 0
    endloop
  endfacet
  facet normal -0.382668 0.923886 0
    outer loop
      vertex -2.05212 5.63815 0
      vertex -2.53571 5.43785 1
      vertex -2.05212 5.63815 1
    endloop
  endfacet
  facet normal -0.382668 0.923886 0
    outer loop
      vertex -2.53571 5.43785 1
      vertex -2.05212 5.63815 0
      vertex -2.53571 5.43785 0
    endloop
  endfacet
  facet normal 0.67559 0.737278 -0
    outer loop
      vertex 4.24264 4.24264 0
      vertex 3.85672 4.59627 1
      vertex 4.24264 4.24264 1
    endloop
  endfacet
  facet normal 0.67559 0.737278 0
    outer loop
      vertex 3.85672 4.59627 1
      vertex 4.24264 4.24264 0
      vertex 3.85672 4.59627 0
    endloop
  endfacet
  facet normal 0.608761 0.793354 -0
    outer loop
      vertex 3.85672 4.59627 0
      vertex 3.44146 4.91491 1
      vertex 3.85672 4.59627 1
    endloop
  endfacet
  facet normal 0.608761 0.793354 0
    outer loop
      vertex 3.44146 4.91491 1
      vertex 3.85672 4.59627 0
      vertex 3.44146 4.91491 0
    endloop
  endfacet
  facet normal -0.843392 -0.537298 0
    outer loop
      vertex -4.91491 -3.44146 0
      vertex -5.19615 -3 1
      vertex -5.19615 -3 0
    endloop
  endfacet
  facet normal -0.843392 -0.537298 0
    outer loop
      vertex -5.19615 -3 1
      vertex -4.91491 -3.44146 0
      vertex -4.91491 -3.44146 1
    endloop
  endfacet
  facet normal -0.043616 -0.999048 0
    outer loop
      vertex -0.522934 -5.97717 0
      vertex 0 -6 1
      vertex -0.522934 -5.97717 1
    endloop
  endfacet
  facet normal -0.043616 -0.999048 -0
    outer loop
      vertex 0 -6 1
      vertex -0.522934 -5.97717 0
      vertex 0 -6 0
    endloop
  endfacet
  facet normal 0.843392 0.537298 0
    outer loop
      vertex 5.19615 3 1
      vertex 4.91491 3.44146 0
      vertex 4.91491 3.44146 1
    endloop
  endfacet
  facet normal 0.843392 0.537298 0
    outer loop
      vertex 4.91491 3.44146 0
      vertex 5.19615 3 1
      vertex 5.19615 3 0
    endloop
  endfacet
  facet normal 0.953717 0.300705 0
    outer loop
      vertex 5.79555 1.55291 1
      vertex 5.63815 2.05212 0
      vertex 5.63815 2.05212 1
    endloop
  endfacet
  facet normal 0.953717 0.300705 0
    outer loop
      vertex 5.63815 2.05212 0
      vertex 5.79555 1.55291 1
      vertex 5.79555 1.55291 0
    endloop
  endfacet
  facet normal -0.537298 -0.843392 0
    outer loop
      vertex -3.44146 -4.91491 0
      vertex -3 -5.19615 1
      vertex -3.44146 -4.91491 1
    endloop
  endfacet
  facet normal -0.537298 -0.843392 -0
    outer loop
      vertex -3 -5.19615 1
      vertex -3.44146 -4.91491 0
      vertex -3 -5.19615 0
    endloop
  endfacet
  facet normal -0.793354 -0.608761 0
    outer loop
      vertex -4.59627 -3.85672 0
      vertex -4.91491 -3.44146 1
      vertex -4.91491 -3.44146 0
    endloop
  endfacet
  facet normal -0.793354 -0.608761 0
    outer loop
      vertex -4.91491 -3.44146 1
      vertex -4.59627 -3.85672 0
      vertex -4.59627 -3.85672 1
    endloop
  endfacet
  facet normal -0.130523 0.991445 0
    outer loop
      vertex -0.522934 5.97717 0
      vertex -1.04189 5.90885 1
      vertex -0.522934 5.97717 1
    endloop
  endfacet
  facet normal -0.130523 0.991445 0
    outer loop
      vertex -1.04189 5.90885 1
      vertex -0.522934 5.97717 0
      vertex -1.04189 5.90885 0
    endloop
  endfacet
  facet normal -0.300705 -0.953717 0
    outer loop
      vertex -2.05212 -5.63815 0
      vertex -1.55291 -5.79555 1
      vertex -2.05212 -5.63815 1
    endloop
  endfacet
  facet normal -0.300705 -0.953717 -0
    outer loop
      vertex -1.55291 -5.79555 1
      vertex -2.05212 -5.63815 0
      vertex -1.55291 -5.79555 0
    endloop
  endfacet
  facet normal -0.923886 -0.382668 0
    outer loop
      vertex -5.43785 -2.53571 0
      vertex -5.63815 -2.05212 1
      vertex -5.63815 -2.05212 0
    endloop
  endfacet
  facet normal -0.923886 -0.382668 0
    outer loop
      vertex -5.63815 -2.05212 1
      vertex -5.43785 -2.53571 0
      vertex -5.43785 -2.53571 1
    endloop
  endfacet
  facet normal 0.999048 -0.043616 0
    outer loop
      vertex 5.97717 -0.522934 1
      vertex 6 0 0
      vertex 6 0 1
    endloop
  endfacet
  facet normal 0.999048 -0.043616 0
    outer loop
      vertex 6 0 0
      vertex 5.97717 -0.522934 1
      vertex 5.97717 -0.522934 0
    endloop
  endfacet
  facet normal 0.887006 -0.461758 0
    outer loop
      vertex 5.19615 -3 1
      vertex 5.43785 -2.53571 0
      vertex 5.43785 -2.53571 1
    endloop
  endfacet
  facet normal 0.887006 -0.461758 0
    outer loop
      vertex 5.43785 -2.53571 0
      vertex 5.19615 -3 1
      vertex 5.19615 -3 0
    endloop
  endfacet
  facet normal -0.537298 0.843392 0
    outer loop
      vertex -3 5.19615 0
      vertex -3.44146 4.91491 1
      vertex -3 5.19615 1
    endloop
  endfacet
  facet normal -0.537298 0.843392 0
    outer loop
      vertex -3.44146 4.91491 1
      vertex -3 5.19615 0
      vertex -3.44146 4.91491 0
    endloop
  endfacet
  facet normal -0.887006 0.461758 0
    outer loop
      vertex -5.43785 2.53571 0
      vertex -5.19615 3 1
      vertex -5.19615 3 0
    endloop
  endfacet
  facet normal -0.887006 0.461758 0
    outer loop
      vertex -5.19615 3 1
      vertex -5.43785 2.53571 0
      vertex -5.43785 2.53571 1
    endloop
  endfacet
  facet normal -0.976292 -0.216457 0
    outer loop
      vertex -5.79555 -1.55291 0
      vertex -5.90885 -1.04189 1
      vertex -5.90885 -1.04189 0
    endloop
  endfacet
  facet normal -0.976292 -0.216457 0
    outer loop
      vertex -5.90885 -1.04189 1
      vertex -5.79555 -1.55291 0
      vertex -5.79555 -1.55291 1
    endloop
  endfacet
  facet normal 0.537298 0.843392 -0
    outer loop
      vertex 3.44146 4.91491 0
      vertex 3 5.19615 1
      vertex 3.44146 4.91491 1
    endloop
  endfacet
  facet normal 0.537298 0.843392 0
    outer loop
      vertex 3 5.19615 1
      vertex 3.44146 4.91491 0
      vertex 3 5.19615 0
    endloop
  endfacet
  facet normal -0.216457 0.976292 0
    outer loop
      vertex -1.04189 5.90885 0
      vertex -1.55291 5.79555 1
      vertex -1.04189 5.90885 1
    endloop
  endfacet
  facet normal -0.216457 0.976292 0
    outer loop
      vertex -1.55291 5.79555 1
      vertex -1.04189 5.90885 0
      vertex -1.55291 5.79555 0
    endloop
  endfacet
  facet normal 0.043616 -0.999048 0
    outer loop
      vertex 0 -6 0
      vertex 0.522934 -5.97717 1
      vertex 0 -6 1
    endloop
  endfacet
  facet normal 0.043616 -0.999048 0
    outer loop
      vertex 0.522934 -5.97717 1
      vertex 0 -6 0
      vertex 0.522934 -5.97717 0
    endloop
  endfacet
  facet normal 0.843392 -0.537298 0
    outer loop
      vertex 4.91491 -3.44146 1
      vertex 5.19615 -3 0
      vertex 5.19615 -3 1
    endloop
  endfacet
  facet normal 0.843392 -0.537298 0
    outer loop
      vertex 5.19615 -3 0
      vertex 4.91491 -3.44146 1
      vertex 4.91491 -3.44146 0
    endloop
  endfacet
  facet normal 0.043616 0.999048 -0
    outer loop
      vertex 0.522934 5.97717 0
      vertex 0 6 1
      vertex 0.522934 5.97717 1
    endloop
  endfacet
  facet normal 0.043616 0.999048 0
    outer loop
      vertex 0 6 1
      vertex 0.522934 5.97717 0
      vertex 0 6 0
    endloop
  endfacet
  facet normal 0.737278 0.67559 0
    outer loop
      vertex 4.59627 3.85672 1
      vertex 4.24264 4.24264 0
      vertex 4.24264 4.24264 1
    endloop
  endfacet
  facet normal 0.737278 0.67559 0
    outer loop
      vertex 4.24264 4.24264 0
      vertex 4.59627 3.85672 1
      vertex 4.59627 3.85672 0
    endloop
  endfacet
  facet normal 0.887006 0.461758 0
    outer loop
      vertex 5.43785 2.53571 1
      vertex 5.19615 3 0
      vertex 5.19615 3 1
    endloop
  endfacet
  facet normal 0.887006 0.461758 0
    outer loop
      vertex 5.19615 3 0
      vertex 5.43785 2.53571 1
      vertex 5.43785 2.53571 0
    endloop
  endfacet
  facet normal 0.923886 -0.382668 0
    outer loop
      vertex 5.43785 -2.53571 1
      vertex 5.63815 -2.05212 0
      vertex 5.63815 -2.05212 1
    endloop
  endfacet
  facet normal 0.923886 -0.382668 0
    outer loop
      vertex 5.63815 -2.05212 0
      vertex 5.43785 -2.53571 1
      vertex 5.43785 -2.53571 0
    endloop
  endfacet
  facet normal 0.461758 0.887006 -0
    outer loop
      vertex 3 5.19615 0
      vertex 2.53571 5.43785 1
      vertex 3 5.19615 1
    endloop
  endfacet
  facet normal 0.461758 0.887006 0
    outer loop
      vertex 2.53571 5.43785 1
      vertex 3 5.19615 0
      vertex 2.53571 5.43785 0
    endloop
  endfacet
  facet normal 0.737278 -0.67559 0
    outer loop
      vertex 4.24264 -4.24264 1
      vertex 4.59627 -3.85672 0
      vertex 4.59627 -3.85672 1
    endloop
  endfacet
  facet normal 0.737278 -0.67559 0
    outer loop
      vertex 4.59627 -3.85672 0
      vertex 4.24264 -4.24264 1
      vertex 4.24264 -4.24264 0
    endloop
  endfacet
  facet normal 0.608761 -0.793354 0
    outer loop
      vertex 3.44146 -4.91491 0
      vertex 3.85672 -4.59627 1
      vertex 3.44146 -4.91491 1
    endloop
  endfacet
  facet normal 0.608761 -0.793354 0
    outer loop
      vertex 3.85672 -4.59627 1
      vertex 3.44146 -4.91491 0
      vertex 3.85672 -4.59627 0
    endloop
  endfacet
  facet normal -0.461758 0.887006 0
    outer loop
      vertex -2.53571 5.43785 0
      vertex -3 5.19615 1
      vertex -2.53571 5.43785 1
    endloop
  endfacet
  facet normal -0.461758 0.887006 0
    outer loop
      vertex -3 5.19615 1
      vertex -2.53571 5.43785 0
      vertex -3 5.19615 0
    endloop
  endfacet
  facet normal 0.923886 0.382668 0
    outer loop
      vertex 5.63815 2.05212 1
      vertex 5.43785 2.53571 0
      vertex 5.43785 2.53571 1
    endloop
  endfacet
  facet normal 0.923886 0.382668 0
    outer loop
      vertex 5.43785 2.53571 0
      vertex 5.63815 2.05212 1
      vertex 5.63815 2.05212 0
    endloop
  endfacet
  facet normal -0.991445 0.130523 0
    outer loop
      vertex -5.97717 0.522934 0
      vertex -5.90885 1.04189 1
      vertex -5.90885 1.04189 0
    endloop
  endfacet
  facet normal -0.991445 0.130523 0
    outer loop
      vertex -5.90885 1.04189 1
      vertex -5.97717 0.522934 0
      vertex -5.97717 0.522934 1
    endloop
  endfacet
  facet normal 0.300705 0.953717 -0
    outer loop
      vertex 2.05212 5.63815 0
      vertex 1.55291 5.79555 1
      vertex 2.05212 5.63815 1
    endloop
  endfacet
  facet normal 0.300705 0.953717 0
    outer loop
      vertex 1.55291 5.79555 1
      vertex 2.05212 5.63815 0
      vertex 1.55291 5.79555 0
    endloop
  endfacet
  facet normal -0.67559 0.737278 0
    outer loop
      vertex -3.85672 4.59627 0
      vertex -4.24264 4.24264 1
      vertex -3.85672 4.59627 1
    endloop
  endfacet
  facet normal -0.67559 0.737278 0
    outer loop
      vertex -4.24264 4.24264 1
      vertex -3.85672 4.59627 0
      vertex -4.24264 4.24264 0
    endloop
  endfacet
  facet normal 0.793354 0.608761 0
    outer loop
      vertex 4.91491 3.44146 1
      vertex 4.59627 3.85672 0
      vertex 4.59627 3.85672 1
    endloop
  endfacet
  facet normal 0.793354 0.608761 0
    outer loop
      vertex 4.59627 3.85672 0
      vertex 4.91491 3.44146 1
      vertex 4.91491 3.44146 0
    endloop
  endfacet
  facet normal 0.461758 -0.887006 0
    outer loop
      vertex 2.53571 -5.43785 0
      vertex 3 -5.19615 1
      vertex 2.53571 -5.43785 1
    endloop
  endfacet
  facet normal 0.461758 -0.887006 0
    outer loop
      vertex 3 -5.19615 1
      vertex 2.53571 -5.43785 0
      vertex 3 -5.19615 0
    endloop
  endfacet
  facet normal -0.300705 0.953717 0
    outer loop
      vertex -1.55291 5.79555 0
      vertex -2.05212 5.63815 1
      vertex -1.55291 5.79555 1
    endloop
  endfacet
  facet normal -0.300705 0.953717 0
    outer loop
      vertex -2.05212 5.63815 1
      vertex -1.55291 5.79555 0
      vertex -2.05212 5.63815 0
    endloop
  endfacet
  facet normal -0.999048 -0.043616 0
    outer loop
      vertex -5.97717 -0.522934 0
      vertex -6 0 1
      vertex -6 0 0
    endloop
  endfacet
  facet normal -0.999048 -0.043616 0
    outer loop
      vertex -6 0 1
      vertex -5.97717 -0.522934 0
      vertex -5.97717 -0.522934 1
    endloop
  endfacet
  facet normal -0.043616 0.999048 0
    outer loop
      vertex 0 6 0
      vertex -0.522934 5.97717 1
      vertex 0 6 1
    endloop
  endfacet
  facet normal -0.043616 0.999048 0
    outer loop
      vertex -0.522934 5.97717 1
      vertex 0 6 0
      vertex -0.522934 5.97717 0
    endloop
  endfacet
  facet normal 0.976292 -0.216457 0
    outer loop
      vertex 5.79555 -1.55291 1
      vertex 5.90885 -1.04189 0
      vertex 5.90885 -1.04189 1
    endloop
  endfacet
  facet normal 0.976292 -0.216457 0
    outer loop
      vertex 5.90885 -1.04189 0
      vertex 5.79555 -1.55291 1
      vertex 5.79555 -1.55291 0
    endloop
  endfacet
  facet normal 0.216457 -0.976292 0
    outer loop
      vertex 1.04189 -5.90885 0
      vertex 1.55291 -5.79555 1
      vertex 1.04189 -5.90885 1
    endloop
  endfacet
  facet normal 0.216457 -0.976292 0
    outer loop
      vertex 1.55291 -5.79555 1
      vertex 1.04189 -5.90885 0
      vertex 1.55291 -5.79555 0
    endloop
  endfacet
  facet normal -0.976292 0.216457 0
    outer loop
      vertex -5.90885 1.04189 0
      vertex -5.79555 1.55291 1
      vertex -5.79555 1.55291 0
    endloop
  endfacet
  facet normal -0.976292 0.216457 0
    outer loop
      vertex -5.79555 1.55291 1
      vertex -5.90885 1.04189 0
      vertex -5.90885 1.04189 1
    endloop
  endfacet
  facet normal -0.737278 -0.67559 0
    outer loop
      vertex -4.24264 -4.24264 0
      vertex -4.59627 -3.85672 1
      vertex -4.59627 -3.85672 0
    endloop
  endfacet
  facet normal -0.737278 -0.67559 0
    outer loop
      vertex -4.59627 -3.85672 1
      vertex -4.24264 -4.24264 0
      vertex -4.24264 -4.24264 1
    endloop
  endfacet
  facet normal -0.991445 -0.130523 0
    outer loop
      vertex -5.90885 -1.04189 0
      vertex -5.97717 -0.522934 1
      vertex -5.97717 -0.522934 0
    endloop
  endfacet
  facet normal -0.991445 -0.130523 0
    outer loop
      vertex -5.97717 -0.522934 1
      vertex -5.90885 -1.04189 0
      vertex -5.90885 -1.04189 1
    endloop
  endfacet
  facet normal -0.887006 -0.461758 0
    outer loop
      vertex -5.19615 -3 0
      vertex -5.43785 -2.53571 1
      vertex -5.43785 -2.53571 0
    endloop
  endfacet
  facet normal -0.887006 -0.461758 0
    outer loop
      vertex -5.43785 -2.53571 1
      vertex -5.19615 -3 0
      vertex -5.19615 -3 1
    endloop
  endfacet
  facet normal 0.130523 0.991445 -0
    outer loop
      vertex 1.04189 5.90885 0
      vertex 0.522934 5.97717 1
      vertex 1.04189 5.90885 1
    endloop
  endfacet
  facet normal 0.130523 0.991445 0
    outer loop
      vertex 0.522934 5.97717 1
      vertex 1.04189 5.90885 0
      vertex 0.522934 5.97717 0
    endloop
  endfacet
  facet normal 0 0 1
    outer loop
      vertex 4.2 0 1
      vertex 6 0 1
      vertex 5.97717 0.522934 1
    endloop
  endfacet
  facet normal 0 0 1
    outer loop
      vertex 4.18402 0.366054 1
      vertex 5.97717 0.522934 1
      vertex 5.90885 1.04189 1
    endloop
  endfacet
  facet normal 0 0 1
    outer loop
      vertex 6 0 1
      vertex 4.2 0 1
      vertex 5.97717 -0.522934 1
    endloop
  endfacet
  facet normal 0 0 1
    outer loop
      vertex 4.13619 0.729321 1
      vertex 5.90885 1.04189 1
      vertex 5.79555 1.55291 1
    endloop
  endfacet
  facet normal -0 0 1
    outer loop
      vertex 4.18402 -0.366054 1
      vertex 5.97717 -0.522934 1
      vertex 4.2 0 1
    endloop
  endfacet
  facet normal 0 0 1
    outer loop
      vertex 4.05689 1.08704 1
      vertex 5.79555 1.55291 1
      vertex 5.63815 2.05212 1
    endloop
  endfacet
  facet normal 0 0 1
    outer loop
      vertex 5.97717 -0.522934 1
      vertex 4.18402 -0.366054 1
      vertex 5.90885 -1.04189 1
    endloop
  endfacet
  facet normal 0 0 1
    outer loop
      vertex 3.94671 1.43648 1
      vertex 5.63815 2.05212 1
      vertex 5.43785 2.53571 1
    endloop
  endfacet
  facet normal -0 0 1
    outer loop
      vertex 4.13619 -0.729321 1
      vertex 5.90885 -1.04189 1
      vertex 4.18402 -0.366054 1
    endloop
  endfacet
  facet normal 0 0 1
    outer loop
      vertex 3.80649 1.775 1
      vertex 5.43785 2.53571 1
      vertex 5.19615 3 1
    endloop
  endfacet
  facet normal 0 0 1
    outer loop
      vertex 5.90885 -1.04189 1
      vertex 4.13619 -0.729321 1
      vertex 5.79555 -1.55291 1
    endloop
  endfacet
  facet normal 0 0 1
    outer loop
      vertex 3.63731 2.1 1
      vertex 5.19615 3 1
      vertex 4.91491 3.44146 1
    endloop
  endfacet
  facet normal -0 0 1
    outer loop
      vertex 4.05689 -1.08704 1
      vertex 5.79555 -1.55291 1
      vertex 4.13619 -0.729321 1
    endloop
  endfacet
  facet normal 0 0 1
    outer loop
      vertex 3.44044 2.40902 1
      vertex 4.91491 3.44146 1
      vertex 4.59627 3.85672 1
    endloop
  endfacet
  facet normal 0 0 1
    outer loop
      vertex 5.79555 -1.55291 1
      vertex 4.05689 -1.08704 1
      vertex 5.63815 -2.05212 1
    endloop
  endfacet
  facet normal 0 0 1
    outer loop
      vertex 3.21739 2.69971 1
      vertex 4.59627 3.85672 1
      vertex 4.24264 4.24264 1
    endloop
  endfacet
  facet normal -0 0 1
    outer loop
      vertex 3.94671 -1.43648 1
      vertex 5.63815 -2.05212 1
      vertex 4.05689 -1.08704 1
    endloop
  endfacet
  facet normal 0 0 1
    outer loop
      vertex 5.63815 -2.05212 1
      vertex 3.94671 -1.43648 1
      vertex 5.43785 -2.53571 1
    endloop
  endfacet
  facet normal 0 0 1
    outer loop
      vertex 5.97717 0.522934 1
      vertex 4.18402 0.366054 1
      vertex 4.2 0 1
    endloop
  endfacet
  facet normal 0 0 1
    outer loop
      vertex 5.90885 1.04189 1
      vertex 4.13619 0.729321 1
      vertex 4.18402 0.366054 1
    endloop
  endfacet
  facet normal 0 0 1
    outer loop
      vertex 5.79555 1.55291 1
      vertex 4.05689 1.08704 1
      vertex 4.13619 0.729321 1
    endloop
  endfacet
  facet normal 0 0 1
    outer loop
      vertex 5.63815 2.05212 1
      vertex 3.94671 1.43648 1
      vertex 4.05689 1.08704 1
    endloop
  endfacet
  facet normal 0 0 1
    outer loop
      vertex 2.96985 2.96985 1
      vertex 4.24264 4.24264 1
      vertex 3.85672 4.59627 1
    endloop
  endfacet
  facet normal 0 0 1
    outer loop
      vertex 5.43785 2.53571 1
      vertex 3.80649 1.775 1
      vertex 3.94671 1.43648 1
    endloop
  endfacet
  facet normal 0 0 1
    outer loop
      vertex 5.19615 3 1
      vertex 3.63731 2.1 1
      vertex 3.80649 1.775 1
    endloop
  endfacet
  facet normal 0 0 1
    outer loop
      vertex 2.69971 3.21739 1
      vertex 3.85672 4.59627 1
      vertex 3.44146 4.91491 1
    endloop
  endfacet
  facet normal 0 0 1
    outer loop
      vertex 4.91491 3.44146 1
      vertex 3.44044 2.40902 1
      vertex 3.63731 2.1 1
    endloop
  endfacet
  facet normal 0 0 1
    outer loop
      vertex 4.59627 3.85672 1
      vertex 3.21739 2.69971 1
      vertex 3.44044 2.40902 1
    endloop
  endfacet
  facet normal 0 0 1
    outer loop
      vertex 2.40902 3.44044 1
      vertex 3.44146 4.91491 1
      vertex 3 5.19615 1
    endloop
  endfacet
  facet normal 0 0 1
    outer loop
      vertex 4.24264 4.24264 1
      vertex 2.96985 2.96985 1
      vertex 3.21739 2.69971 1
    endloop
  endfacet
  facet normal 0 0 1
    outer loop
      vertex 3.85672 4.59627 1
      vertex 2.69971 3.21739 1
      vertex 2.96985 2.96985 1
    endloop
  endfacet
  facet normal 0 0 1
    outer loop
      vertex 2.1 3.63731 1
      vertex 3 5.19615 1
      vertex 2.53571 5.43785 1
    endloop
  endfacet
  facet normal 0 0 1
    outer loop
      vertex 3.44146 4.91491 1
      vertex 2.40902 3.44044 1
      vertex 2.69971 3.21739 1
    endloop
  endfacet
  facet normal 0 0 1
    outer loop
      vertex 3 5.19615 1
      vertex 2.1 3.63731 1
      vertex 2.40902 3.44044 1
    endloop
  endfacet
  facet normal 0 0 1
    outer loop
      vertex 1.775 3.80649 1
      vertex 2.53571 5.43785 1
      vertex 2.05212 5.63815 1
    endloop
  endfacet
  facet normal 0 0 1
    outer loop
      vertex 2.53571 5.43785 1
      vertex 1.775 3.80649 1
      vertex 2.1 3.63731 1
    endloop
  endfacet
  facet normal 0 0 1
    outer loop
      vertex 1.43648 3.94671 1
      vertex 2.05212 5.63815 1
      vertex 1.55291 5.79555 1
    endloop
  endfacet
  facet normal 0 0 1
    outer loop
      vertex 2.05212 5.63815 1
      vertex 1.43648 3.94671 1
      vertex 1.775 3.80649 1
    endloop
  endfacet
  facet normal 0 0 1
    outer loop
      vertex 1.55291 5.79555 1
      vertex 1.08704 4.05689 1
      vertex 1.43648 3.94671 1
    endloop
  endfacet
  facet normal 0 0 1
    outer loop
      vertex 1.04189 5.90885 1
      vertex 1.08704 4.05689 1
      vertex 1.55291 5.79555 1
    endloop
  endfacet
  facet normal 0 0 1
    outer loop
      vertex 1.04189 5.90885 1
      vertex 0.729321 4.13619 1
      vertex 1.08704 4.05689 1
    endloop
  endfacet
  facet normal 0 0 1
    outer loop
      vertex 0.522934 5.97717 1
      vertex 0.729321 4.13619 1
      vertex 1.04189 5.90885 1
    endloop
  endfacet
  facet normal 0 0 1
    outer loop
      vertex 0.522934 5.97717 1
      vertex 0.366054 4.18402 1
      vertex 0.729321 4.13619 1
    endloop
  endfacet
  facet normal 0 0 1
    outer loop
      vertex 0 6 1
      vertex 0.366054 4.18402 1
      vertex 0.522934 5.97717 1
    endloop
  endfacet
  facet normal 0 0 1
    outer loop
      vertex 0 6 1
      vertex 0 4.2 1
      vertex 0.366054 4.18402 1
    endloop
  endfacet
  facet normal 0 0 1
    outer loop
      vertex 0 6 1
      vertex -0.366054 4.18402 1
      vertex 0 4.2 1
    endloop
  endfacet
  facet normal -0 0 1
    outer loop
      vertex -0.522934 5.97717 1
      vertex -0.366054 4.18402 1
      vertex 0 6 1
    endloop
  endfacet
  facet normal 0 0 1
    outer loop
      vertex -0.522934 5.97717 1
      vertex -0.729321 4.13619 1
      vertex -0.366054 4.18402 1
    endloop
  endfacet
  facet normal -0 0 1
    outer loop
      vertex -1.04189 5.90885 1
      vertex -0.729321 4.13619 1
      vertex -0.522934 5.97717 1
    endloop
  endfacet
  facet normal 0 0 1
    outer loop
      vertex -1.04189 5.90885 1
      vertex -1.08704 4.05689 1
      vertex -0.729321 4.13619 1
    endloop
  endfacet
  facet normal -0 0 1
    outer loop
      vertex -1.55291 5.79555 1
      vertex -1.08704 4.05689 1
      vertex -1.04189 5.90885 1
    endloop
  endfacet
  facet normal 0 0 1
    outer loop
      vertex -1.08704 4.05689 1
      vertex -1.55291 5.79555 1
      vertex -1.43648 3.94671 1
    endloop
  endfacet
  facet normal -0 0 1
    outer loop
      vertex -2.05212 5.63815 1
      vertex -1.43648 3.94671 1
      vertex -1.55291 5.79555 1
    endloop
  endfacet
  facet normal 0 0 1
    outer loop
      vertex -1.43648 3.94671 1
      vertex -2.05212 5.63815 1
      vertex -1.775 3.80649 1
    endloop
  endfacet
  facet normal -0 0 1
    outer loop
      vertex -2.53571 5.43785 1
      vertex -1.775 3.80649 1
      vertex -2.05212 5.63815 1
    endloop
  endfacet
  facet normal 0 0 1
    outer loop
      vertex -1.775 3.80649 1
      vertex -2.53571 5.43785 1
      vertex -2.1 3.63731 1
    endloop
  endfacet
  facet normal -0 0 1
    outer loop
      vertex -3 5.19615 1
      vertex -2.1 3.63731 1
      vertex -2.53571 5.43785 1
    endloop
  endfacet
  facet normal 0 0 1
    outer loop
      vertex -2.1 3.63731 1
      vertex -3 5.19615 1
      vertex -2.40902 3.44044 1
    endloop
  endfacet
  facet normal -0 0 1
    outer loop
      vertex -3.44146 4.91491 1
      vertex -2.40902 3.44044 1
      vertex -3 5.19615 1
    endloop
  endfacet
  facet normal 0 0 1
    outer loop
      vertex -2.40902 3.44044 1
      vertex -3.44146 4.91491 1
      vertex -2.69971 3.21739 1
    endloop
  endfacet
  facet normal -0 0 1
    outer loop
      vertex -3.85672 4.59627 1
      vertex -2.69971 3.21739 1
      vertex -3.44146 4.91491 1
    endloop
  endfacet
  facet normal 0 0 1
    outer loop
      vertex -2.69971 3.21739 1
      vertex -3.85672 4.59627 1
      vertex -2.96985 2.96985 1
    endloop
  endfacet
  facet normal -0 0 1
    outer loop
      vertex -4.24264 4.24264 1
      vertex -2.96985 2.96985 1
      vertex -3.85672 4.59627 1
    endloop
  endfacet
  facet normal 0 0 1
    outer loop
      vertex -2.96985 2.96985 1
      vertex -4.24264 4.24264 1
      vertex -3.21739 2.69971 1
    endloop
  endfacet
  facet normal -0 0 1
    outer loop
      vertex -4.59627 3.85672 1
      vertex -3.21739 2.69971 1
      vertex -4.24264 4.24264 1
    endloop
  endfacet
  facet normal 0 0 1
    outer loop
      vertex -3.21739 2.69971 1
      vertex -4.59627 3.85672 1
      vertex -3.44044 2.40902 1
    endloop
  endfacet
  facet normal -0 0 1
    outer loop
      vertex -4.91491 3.44146 1
      vertex -3.44044 2.40902 1
      vertex -4.59627 3.85672 1
    endloop
  endfacet
  facet normal 0 0 1
    outer loop
      vertex -3.44044 2.40902 1
      vertex -4.91491 3.44146 1
      vertex -3.63731 2.1 1
    endloop
  endfacet
  facet normal -0 0 1
    outer loop
      vertex -5.19615 3 1
      vertex -3.63731 2.1 1
      vertex -4.91491 3.44146 1
    endloop
  endfacet
  facet normal 0 0 1
    outer loop
      vertex -3.63731 2.1 1
      vertex -5.19615 3 1
      vertex -3.80649 1.775 1
    endloop
  endfacet
  facet normal 0 0 1
    outer loop
      vertex -3.80649 1.775 1
      vertex -5.43785 2.53571 1
      vertex -3.94671 1.43648 1
    endloop
  endfacet
  facet normal -0 0 1
    outer loop
      vertex -5.43785 2.53571 1
      vertex -3.80649 1.775 1
      vertex -5.19615 3 1
    endloop
  endfacet
  facet normal -0 0 1
    outer loop
      vertex 3.80649 -1.775 1
      vertex 5.43785 -2.53571 1
      vertex 3.94671 -1.43648 1
    endloop
  endfacet
  facet normal 0 0 1
    outer loop
      vertex 5.43785 -2.53571 1
      vertex 3.80649 -1.775 1
      vertex 5.19615 -3 1
    endloop
  endfacet
  facet normal -0 0 1
    outer loop
      vertex 3.63731 -2.1 1
      vertex 5.19615 -3 1
      vertex 3.80649 -1.775 1
    endloop
  endfacet
  facet normal 0 0 1
    outer loop
      vertex 5.19615 -3 1
      vertex 3.63731 -2.1 1
      vertex 4.91491 -3.44146 1
    endloop
  endfacet
  facet normal -0 0 1
    outer loop
      vertex 3.44044 -2.40902 1
      vertex 4.91491 -3.44146 1
      vertex 3.63731 -2.1 1
    endloop
  endfacet
  facet normal 0 0 1
    outer loop
      vertex 4.91491 -3.44146 1
      vertex 3.44044 -2.40902 1
      vertex 4.59627 -3.85672 1
    endloop
  endfacet
  facet normal -0 0 1
    outer loop
      vertex 3.21739 -2.69971 1
      vertex 4.59627 -3.85672 1
      vertex 3.44044 -2.40902 1
    endloop
  endfacet
  facet normal 0 0 1
    outer loop
      vertex 4.59627 -3.85672 1
      vertex 3.21739 -2.69971 1
      vertex 4.24264 -4.24264 1
    endloop
  endfacet
  facet normal -0 0 1
    outer loop
      vertex 2.96985 -2.96985 1
      vertex 4.24264 -4.24264 1
      vertex 3.21739 -2.69971 1
    endloop
  endfacet
  facet normal 0 0 1
    outer loop
      vertex 4.24264 -4.24264 1
      vertex 2.96985 -2.96985 1
      vertex 3.85672 -4.59627 1
    endloop
  endfacet
  facet normal -0 0 1
    outer loop
      vertex 2.69971 -3.21739 1
      vertex 3.85672 -4.59627 1
      vertex 2.96985 -2.96985 1
    endloop
  endfacet
  facet normal 0 0 1
    outer loop
      vertex 3.85672 -4.59627 1
      vertex 2.69971 -3.21739 1
      vertex 3.44146 -4.91491 1
    endloop
  endfacet
  facet normal -0 0 1
    outer loop
      vertex 2.40902 -3.44044 1
      vertex 3.44146 -4.91491 1
      vertex 2.69971 -3.21739 1
    endloop
  endfacet
  facet normal 0 0 1
    outer loop
      vertex 3.44146 -4.91491 1
      vertex 2.40902 -3.44044 1
      vertex 3 -5.19615 1
    endloop
  endfacet
  facet normal -0 0 1
    outer loop
      vertex 2.1 -3.63731 1
      vertex 3 -5.19615 1
      vertex 2.40902 -3.44044 1
    endloop
  endfacet
  facet normal 0 0 1
    outer loop
      vertex 3 -5.19615 1
      vertex 2.1 -3.63731 1
      vertex 2.53571 -5.43785 1
    endloop
  endfacet
  facet normal -0 0 1
    outer loop
      vertex 1.775 -3.80649 1
      vertex 2.53571 -5.43785 1
      vertex 2.1 -3.63731 1
    endloop
  endfacet
  facet normal 0 0 1
    outer loop
      vertex 2.53571 -5.43785 1
      vertex 1.775 -3.80649 1
      vertex 2.05212 -5.63815 1
    endloop
  endfacet
  facet normal -0 0 1
    outer loop
      vertex 1.43648 -3.94671 1
      vertex 2.05212 -5.63815 1
      vertex 1.775 -3.80649 1
    endloop
  endfacet
  facet normal 0 0 1
    outer loop
      vertex 2.05212 -5.63815 1
      vertex 1.43648 -3.94671 1
      vertex 1.55291 -5.79555 1
    endloop
  endfacet
  facet normal -0 0 1
    outer loop
      vertex 1.08704 -4.05689 1
      vertex 1.55291 -5.79555 1
      vertex 1.43648 -3.94671 1
    endloop
  endfacet
  facet normal 0 0 1
    outer loop
      vertex 1.08704 -4.05689 1
      vertex 1.04189 -5.90885 1
      vertex 1.55291 -5.79555 1
    endloop
  endfacet
  facet normal -0 0 1
    outer loop
      vertex 0.729321 -4.13619 1
      vertex 1.04189 -5.90885 1
      vertex 1.08704 -4.05689 1
    endloop
  endfacet
  facet normal 0 0 1
    outer loop
      vertex 0.729321 -4.13619 1
      vertex 0.522934 -5.97717 1
      vertex 1.04189 -5.90885 1
    endloop
  endfacet
  facet normal -0 0 1
    outer loop
      vertex 0.366054 -4.18402 1
      vertex 0.522934 -5.97717 1
      vertex 0.729321 -4.13619 1
    endloop
  endfacet
  facet normal -0 0 1
    outer loop
      vertex 0 -4.2 1
      vertex 0.522934 -5.97717 1
      vertex 0.366054 -4.18402 1
    endloop
  endfacet
  facet normal 0 0 1
    outer loop
      vertex 0 -4.2 1
      vertex 0 -6 1
      vertex 0.522934 -5.97717 1
    endloop
  endfacet
  facet normal 0 0 1
    outer loop
      vertex -0.366054 -4.18402 1
      vertex 0 -6 1
      vertex 0 -4.2 1
    endloop
  endfacet
  facet normal 0 0 1
    outer loop
      vertex -0.366054 -4.18402 1
      vertex -0.522934 -5.97717 1
      vertex 0 -6 1
    endloop
  endfacet
  facet normal 0 0 1
    outer loop
      vertex -0.729321 -4.13619 1
      vertex -0.522934 -5.97717 1
      vertex -0.366054 -4.18402 1
    endloop
  endfacet
  facet normal 0 0 1
    outer loop
      vertex -0.729321 -4.13619 1
      vertex -1.04189 -5.90885 1
      vertex -0.522934 -5.97717 1
    endloop
  endfacet
  facet normal 0 0 1
    outer loop
      vertex -1.08704 -4.05689 1
      vertex -1.04189 -5.90885 1
      vertex -0.729321 -4.13619 1
    endloop
  endfacet
  facet normal 0 0 1
    outer loop
      vertex -1.55291 -5.79555 1
      vertex -1.08704 -4.05689 1
      vertex -1.43648 -3.94671 1
    endloop
  endfacet
  facet normal 0 0 1
    outer loop
      vertex -1.08704 -4.05689 1
      vertex -1.55291 -5.79555 1
      vertex -1.04189 -5.90885 1
    endloop
  endfacet
  facet normal 0 0 1
    outer loop
      vertex -2.05212 -5.63815 1
      vertex -1.43648 -3.94671 1
      vertex -1.775 -3.80649 1
    endloop
  endfacet
  facet normal 0 0 1
    outer loop
      vertex -1.43648 -3.94671 1
      vertex -2.05212 -5.63815 1
      vertex -1.55291 -5.79555 1
    endloop
  endfacet
  facet normal 0 0 1
    outer loop
      vertex -2.53571 -5.43785 1
      vertex -1.775 -3.80649 1
      vertex -2.1 -3.63731 1
    endloop
  endfacet
  facet normal 0 0 1
    outer loop
      vertex -3 -5.19615 1
      vertex -2.1 -3.63731 1
      vertex -2.40902 -3.44044 1
    endloop
  endfacet
  facet normal 0 0 1
    outer loop
      vertex -1.775 -3.80649 1
      vertex -2.53571 -5.43785 1
      vertex -2.05212 -5.63815 1
    endloop
  endfacet
  facet normal 0 0 1
    outer loop
      vertex -3.44146 -4.91491 1
      vertex -2.40902 -3.44044 1
      vertex -2.69971 -3.21739 1
    endloop
  endfacet
  facet normal 0 0 1
    outer loop
      vertex -3.85672 -4.59627 1
      vertex -2.69971 -3.21739 1
      vertex -2.96985 -2.96985 1
    endloop
  endfacet
  facet normal 0 0 1
    outer loop
      vertex -2.1 -3.63731 1
      vertex -3 -5.19615 1
      vertex -2.53571 -5.43785 1
    endloop
  endfacet
  facet normal 0 0 1
    outer loop
      vertex -4.24264 -4.24264 1
      vertex -2.96985 -2.96985 1
      vertex -3.21739 -2.69971 1
    endloop
  endfacet
  facet normal 0 0 1
    outer loop
      vertex -4.59627 -3.85672 1
      vertex -3.21739 -2.69971 1
      vertex -3.44044 -2.40902 1
    endloop
  endfacet
  facet normal 0 0 1
    outer loop
      vertex -2.40902 -3.44044 1
      vertex -3.44146 -4.91491 1
      vertex -3 -5.19615 1
    endloop
  endfacet
  facet normal 0 0 1
    outer loop
      vertex -4.91491 -3.44146 1
      vertex -3.44044 -2.40902 1
      vertex -3.63731 -2.1 1
    endloop
  endfacet
  facet normal 0 0 1
    outer loop
      vertex -5.19615 -3 1
      vertex -3.63731 -2.1 1
      vertex -3.80649 -1.775 1
    endloop
  endfacet
  facet normal 0 0 1
    outer loop
      vertex -2.69971 -3.21739 1
      vertex -3.85672 -4.59627 1
      vertex -3.44146 -4.91491 1
    endloop
  endfacet
  facet normal 0 0 1
    outer loop
      vertex -5.43785 -2.53571 1
      vertex -3.80649 -1.775 1
      vertex -3.94671 -1.43648 1
    endloop
  endfacet
  facet normal 0 0 1
    outer loop
      vertex -5.63815 -2.05212 1
      vertex -3.94671 -1.43648 1
      vertex -4.05689 -1.08704 1
    endloop
  endfacet
  facet normal 0 0 1
    outer loop
      vertex -5.79555 -1.55291 1
      vertex -4.05689 -1.08704 1
      vertex -4.13619 -0.729321 1
    endloop
  endfacet
  facet normal 0 0 1
    outer loop
      vertex -5.90885 -1.04189 1
      vertex -4.13619 -0.729321 1
      vertex -4.18402 -0.366054 1
    endloop
  endfacet
  facet normal 0 0 1
    outer loop
      vertex -2.96985 -2.96985 1
      vertex -4.24264 -4.24264 1
      vertex -3.85672 -4.59627 1
    endloop
  endfacet
  facet normal 0 0 1
    outer loop
      vertex -5.97717 -0.522934 1
      vertex -4.18402 -0.366054 1
      vertex -4.2 0 1
    endloop
  endfacet
  facet normal -0 0 1
    outer loop
      vertex -5.63815 2.05212 1
      vertex -3.94671 1.43648 1
      vertex -5.43785 2.53571 1
    endloop
  endfacet
  facet normal 0 0 1
    outer loop
      vertex -3.94671 1.43648 1
      vertex -5.63815 2.05212 1
      vertex -4.05689 1.08704 1
    endloop
  endfacet
  facet normal 0 0 1
    outer loop
      vertex -3.21739 -2.69971 1
      vertex -4.59627 -3.85672 1
      vertex -4.24264 -4.24264 1
    endloop
  endfacet
  facet normal -0 0 1
    outer loop
      vertex -5.79555 1.55291 1
      vertex -4.05689 1.08704 1
      vertex -5.63815 2.05212 1
    endloop
  endfacet
  facet normal 0 0 1
    outer loop
      vertex -3.44044 -2.40902 1
      vertex -4.91491 -3.44146 1
      vertex -4.59627 -3.85672 1
    endloop
  endfacet
  facet normal 0 0 1
    outer loop
      vertex -4.05689 1.08704 1
      vertex -5.79555 1.55291 1
      vertex -4.13619 0.729321 1
    endloop
  endfacet
  facet normal 0 0 1
    outer loop
      vertex -3.63731 -2.1 1
      vertex -5.19615 -3 1
      vertex -4.91491 -3.44146 1
    endloop
  endfacet
  facet normal -0 0 1
    outer loop
      vertex -5.90885 1.04189 1
      vertex -4.13619 0.729321 1
      vertex -5.79555 1.55291 1
    endloop
  endfacet
  facet normal 0 0 1
    outer loop
      vertex -3.80649 -1.775 1
      vertex -5.43785 -2.53571 1
      vertex -5.19615 -3 1
    endloop
  endfacet
  facet normal 0 0 1
    outer loop
      vertex -4.13619 0.729321 1
      vertex -5.90885 1.04189 1
      vertex -4.18402 0.366054 1
    endloop
  endfacet
  facet normal 0 0 1
    outer loop
      vertex -3.94671 -1.43648 1
      vertex -5.63815 -2.05212 1
      vertex -5.43785 -2.53571 1
    endloop
  endfacet
  facet normal -0 0 1
    outer loop
      vertex -5.97717 0.522934 1
      vertex -4.18402 0.366054 1
      vertex -5.90885 1.04189 1
    endloop
  endfacet
  facet normal 0 0 1
    outer loop
      vertex -4.05689 -1.08704 1
      vertex -5.79555 -1.55291 1
      vertex -5.63815 -2.05212 1
    endloop
  endfacet
  facet normal 0 0 1
    outer loop
      vertex -4.18402 0.366054 1
      vertex -5.97717 0.522934 1
      vertex -4.2 0 1
    endloop
  endfacet
  facet normal 0 0 1
    outer loop
      vertex -4.13619 -0.729321 1
      vertex -5.90885 -1.04189 1
      vertex -5.79555 -1.55291 1
    endloop
  endfacet
  facet normal 0 0 1
    outer loop
      vertex -6 0 1
      vertex -4.2 0 1
      vertex -5.97717 0.522934 1
    endloop
  endfacet
  facet normal 0 0 1
    outer loop
      vertex -4.18402 -0.366054 1
      vertex -5.97717 -0.522934 1
      vertex -5.90885 -1.04189 1
    endloop
  endfacet
  facet normal 0 0 1
    outer loop
      vertex -4.2 0 1
      vertex -6 0 1
      vertex -5.97717 -0.522934 1
    endloop
  endfacet
  facet normal -0.953717 -0.300705 0
    outer loop
      vertex -5.63815 -2.05212 0
      vertex -5.79555 -1.55291 1
      vertex -5.79555 -1.55291 0
    endloop
  endfacet
  facet normal -0.953717 -0.300705 0
    outer loop
      vertex -5.79555 -1.55291 1
      vertex -5.63815 -2.05212 0
      vertex -5.63815 -2.05212 1
    endloop
  endfacet
  facet normal 0.216457 0.976292 -0
    outer loop
      vertex 1.55291 5.79555 0
      vertex 1.04189 5.90885 1
      vertex 1.55291 5.79555 1
    endloop
  endfacet
  facet normal 0.216457 0.976292 0
    outer loop
      vertex 1.04189 5.90885 1
      vertex 1.55291 5.79555 0
      vertex 1.04189 5.90885 0
    endloop
  endfacet
  facet normal -0.793354 0.608761 0
    outer loop
      vertex -4.91491 3.44146 0
      vertex -4.59627 3.85672 1
      vertex -4.59627 3.85672 0
    endloop
  endfacet
  facet normal -0.793354 0.608761 0
    outer loop
      vertex -4.59627 3.85672 1
      vertex -4.91491 3.44146 0
      vertex -4.91491 3.44146 1
    endloop
  endfacet
  facet normal -0.382668 -0.923886 0
    outer loop
      vertex -2.53571 -5.43785 0
      vertex -2.05212 -5.63815 1
      vertex -2.53571 -5.43785 1
    endloop
  endfacet
  facet normal -0.382668 -0.923886 -0
    outer loop
      vertex -2.05212 -5.63815 1
      vertex -2.53571 -5.43785 0
      vertex -2.05212 -5.63815 0
    endloop
  endfacet
  facet normal -0.130523 -0.991445 0
    outer loop
      vertex -1.04189 -5.90885 0
      vertex -0.522934 -5.97717 1
      vertex -1.04189 -5.90885 1
    endloop
  endfacet
  facet normal -0.130523 -0.991445 -0
    outer loop
      vertex -0.522934 -5.97717 1
      vertex -1.04189 -5.90885 0
      vertex -0.522934 -5.97717 0
    endloop
  endfacet
  facet normal -0.843392 0.537298 0
    outer loop
      vertex -5.19615 3 0
      vertex -4.91491 3.44146 1
      vertex -4.91491 3.44146 0
    endloop
  endfacet
  facet normal -0.843392 0.537298 0
    outer loop
      vertex -4.91491 3.44146 1
      vertex -5.19615 3 0
      vertex -5.19615 3 1
    endloop
  endfacet
  facet normal -0.999048 0.043616 0
    outer loop
      vertex -6 0 0
      vertex -5.97717 0.522934 1
      vertex -5.97717 0.522934 0
    endloop
  endfacet
  facet normal -0.999048 0.043616 0
    outer loop
      vertex -5.97717 0.522934 1
      vertex -6 0 0
      vertex -6 0 1
    endloop
  endfacet
  facet normal 0.300705 -0.953717 0
    outer loop
      vertex 1.55291 -5.79555 0
      vertex 2.05212 -5.63815 1
      vertex 1.55291 -5.79555 1
    endloop
  endfacet
  facet normal 0.300705 -0.953717 0
    outer loop
      vertex 2.05212 -5.63815 1
      vertex 1.55291 -5.79555 0
      vertex 2.05212 -5.63815 0
    endloop
  endfacet
  facet normal -0.923886 0.382668 0
    outer loop
      vertex -5.63815 2.05212 0
      vertex -5.43785 2.53571 1
      vertex -5.43785 2.53571 0
    endloop
  endfacet
  facet normal -0.923886 0.382668 0
    outer loop
      vertex -5.43785 2.53571 1
      vertex -5.63815 2.05212 0
      vertex -5.63815 2.05212 1
    endloop
  endfacet
  facet normal 0.991445 -0.130523 0
    outer loop
      vertex 5.90885 -1.04189 1
      vertex 5.97717 -0.522934 0
      vertex 5.97717 -0.522934 1
    endloop
  endfacet
  facet normal 0.991445 -0.130523 0
    outer loop
      vertex 5.97717 -0.522934 0
      vertex 5.90885 -1.04189 1
      vertex 5.90885 -1.04189 0
    endloop
  endfacet
  facet normal 0.67559 -0.737278 0
    outer loop
      vertex 3.85672 -4.59627 0
      vertex 4.24264 -4.24264 1
      vertex 3.85672 -4.59627 1
    endloop
  endfacet
  facet normal 0.67559 -0.737278 0
    outer loop
      vertex 4.24264 -4.24264 1
      vertex 3.85672 -4.59627 0
      vertex 4.24264 -4.24264 0
    endloop
  endfacet
  facet normal 0.13054 0.991443 -0
    outer loop
      vertex -0.366054 -4.18402 0
      vertex -0.729321 -4.13619 1
      vertex -0.366054 -4.18402 1
    endloop
  endfacet
  facet normal 0.13054 0.991443 0
    outer loop
      vertex -0.729321 -4.13619 1
      vertex -0.366054 -4.18402 0
      vertex -0.729321 -4.13619 0
    endloop
  endfacet
  facet normal -0.991443 -0.13054 0
    outer loop
      vertex 4.18402 0.366054 0
      vertex 4.13619 0.729321 1
      vertex 4.13619 0.729321 0
    endloop
  endfacet
  facet normal -0.991443 -0.13054 0
    outer loop
      vertex 4.13619 0.729321 1
      vertex 4.18402 0.366054 0
      vertex 4.18402 0.366054 1
    endloop
  endfacet
  facet normal -0.999048 -0.0436132 0
    outer loop
      vertex 4.2 0 0
      vertex 4.18402 0.366054 1
      vertex 4.18402 0.366054 0
    endloop
  endfacet
  facet normal -0.999048 -0.0436132 0
    outer loop
      vertex 4.18402 0.366054 1
      vertex 4.2 0 0
      vertex 4.2 0 1
    endloop
  endfacet
  facet normal 0.793359 -0.608754 0
    outer loop
      vertex -3.44044 2.40902 1
      vertex -3.21739 2.69971 0
      vertex -3.21739 2.69971 1
    endloop
  endfacet
  facet normal 0.793359 -0.608754 0
    outer loop
      vertex -3.21739 2.69971 0
      vertex -3.44044 2.40902 1
      vertex -3.44044 2.40902 0
    endloop
  endfacet
  facet normal -0.382684 0.923879 0
    outer loop
      vertex 1.775 -3.80649 0
      vertex 1.43648 -3.94671 1
      vertex 1.775 -3.80649 1
    endloop
  endfacet
  facet normal -0.382684 0.923879 0
    outer loop
      vertex 1.43648 -3.94671 1
      vertex 1.775 -3.80649 0
      vertex 1.43648 -3.94671 0
    endloop
  endfacet
  facet normal -0.13054 -0.991443 0
    outer loop
      vertex 0.366054 4.18402 0
      vertex 0.729321 4.13619 1
      vertex 0.366054 4.18402 1
    endloop
  endfacet
  facet normal -0.13054 -0.991443 -0
    outer loop
      vertex 0.729321 4.13619 1
      vertex 0.366054 4.18402 0
      vertex 0.729321 4.13619 0
    endloop
  endfacet
  facet normal 0.608754 0.793359 -0
    outer loop
      vertex -2.40902 -3.44044 0
      vertex -2.69971 -3.21739 1
      vertex -2.40902 -3.44044 1
    endloop
  endfacet
  facet normal 0.608754 0.793359 0
    outer loop
      vertex -2.69971 -3.21739 1
      vertex -2.40902 -3.44044 0
      vertex -2.69971 -3.21739 0
    endloop
  endfacet
  facet normal -0.737274 0.675594 0
    outer loop
      vertex 2.96985 -2.96985 0
      vertex 3.21739 -2.69971 1
      vertex 3.21739 -2.69971 0
    endloop
  endfacet
  facet normal -0.737274 0.675594 0
    outer loop
      vertex 3.21739 -2.69971 1
      vertex 2.96985 -2.96985 0
      vertex 2.96985 -2.96985 1
    endloop
  endfacet
  facet normal 0.923879 -0.382684 0
    outer loop
      vertex -3.94671 1.43648 1
      vertex -3.80649 1.775 0
      vertex -3.80649 1.775 1
    endloop
  endfacet
  facet normal 0.923879 -0.382684 0
    outer loop
      vertex -3.80649 1.775 0
      vertex -3.94671 1.43648 1
      vertex -3.94671 1.43648 0
    endloop
  endfacet
  facet normal 0.216428 -0.976299 0
    outer loop
      vertex -1.08704 4.05689 0
      vertex -0.729321 4.13619 1
      vertex -1.08704 4.05689 1
    endloop
  endfacet
  facet normal 0.216428 -0.976299 0
    outer loop
      vertex -0.729321 4.13619 1
      vertex -1.08704 4.05689 0
      vertex -0.729321 4.13619 0
    endloop
  endfacet
  facet normal -0.13054 0.991443 0
    outer loop
      vertex 0.729321 -4.13619 0
      vertex 0.366054 -4.18402 1
      vertex 0.729321 -4.13619 1
    endloop
  endfacet
  facet normal -0.13054 0.991443 0
    outer loop
      vertex 0.366054 -4.18402 1
      vertex 0.729321 -4.13619 0
      vertex 0.366054 -4.18402 0
    endloop
  endfacet
  facet normal 0.887016 -0.461739 0
    outer loop
      vertex -3.80649 1.775 1
      vertex -3.63731 2.1 0
      vertex -3.63731 2.1 1
    endloop
  endfacet
  facet normal 0.887016 -0.461739 0
    outer loop
      vertex -3.63731 2.1 0
      vertex -3.80649 1.775 1
      vertex -3.80649 1.775 0
    endloop
  endfacet
  facet normal -0.953715 -0.300711 0
    outer loop
      vertex 4.05689 1.08704 0
      vertex 3.94671 1.43648 1
      vertex 3.94671 1.43648 0
    endloop
  endfacet
  facet normal -0.953715 -0.300711 0
    outer loop
      vertex 3.94671 1.43648 1
      vertex 4.05689 1.08704 0
      vertex 4.05689 1.08704 1
    endloop
  endfacet
  facet normal 0.537305 -0.843388 0
    outer loop
      vertex -2.40902 3.44044 0
      vertex -2.1 3.63731 1
      vertex -2.40902 3.44044 1
    endloop
  endfacet
  facet normal 0.537305 -0.843388 0
    outer loop
      vertex -2.1 3.63731 1
      vertex -2.40902 3.44044 0
      vertex -2.1 3.63731 0
    endloop
  endfacet
  facet normal -0.608754 -0.793359 0
    outer loop
      vertex 2.40902 3.44044 0
      vertex 2.69971 3.21739 1
      vertex 2.40902 3.44044 1
    endloop
  endfacet
  facet normal -0.608754 -0.793359 -0
    outer loop
      vertex 2.69971 3.21739 1
      vertex 2.40902 3.44044 0
      vertex 2.69971 3.21739 0
    endloop
  endfacet
  facet normal 0.953715 0.300711 0
    outer loop
      vertex -3.94671 -1.43648 1
      vertex -4.05689 -1.08704 0
      vertex -4.05689 -1.08704 1
    endloop
  endfacet
  facet normal 0.953715 0.300711 0
    outer loop
      vertex -4.05689 -1.08704 0
      vertex -3.94671 -1.43648 1
      vertex -3.94671 -1.43648 0
    endloop
  endfacet
  facet normal -0.793359 0.608754 0
    outer loop
      vertex 3.21739 -2.69971 0
      vertex 3.44044 -2.40902 1
      vertex 3.44044 -2.40902 0
    endloop
  endfacet
  facet normal -0.793359 0.608754 0
    outer loop
      vertex 3.44044 -2.40902 1
      vertex 3.21739 -2.69971 0
      vertex 3.21739 -2.69971 1
    endloop
  endfacet
  facet normal -0.793359 -0.608754 0
    outer loop
      vertex 3.44044 2.40902 0
      vertex 3.21739 2.69971 1
      vertex 3.21739 2.69971 0
    endloop
  endfacet
  facet normal -0.793359 -0.608754 0
    outer loop
      vertex 3.21739 2.69971 1
      vertex 3.44044 2.40902 0
      vertex 3.44044 2.40902 1
    endloop
  endfacet
  facet normal 0.461739 -0.887016 0
    outer loop
      vertex -2.1 3.63731 0
      vertex -1.775 3.80649 1
      vertex -2.1 3.63731 1
    endloop
  endfacet
  facet normal 0.461739 -0.887016 0
    outer loop
      vertex -1.775 3.80649 1
      vertex -2.1 3.63731 0
      vertex -1.775 3.80649 0
    endloop
  endfacet
  facet normal -0.976299 0.216428 0
    outer loop
      vertex 4.05689 -1.08704 0
      vertex 4.13619 -0.729321 1
      vertex 4.13619 -0.729321 0
    endloop
  endfacet
  facet normal -0.976299 0.216428 0
    outer loop
      vertex 4.13619 -0.729321 1
      vertex 4.05689 -1.08704 0
      vertex 4.05689 -1.08704 1
    endloop
  endfacet
  facet normal -0.675594 0.737274 0
    outer loop
      vertex 2.96985 -2.96985 0
      vertex 2.69971 -3.21739 1
      vertex 2.96985 -2.96985 1
    endloop
  endfacet
  facet normal -0.675594 0.737274 0
    outer loop
      vertex 2.69971 -3.21739 1
      vertex 2.96985 -2.96985 0
      vertex 2.69971 -3.21739 0
    endloop
  endfacet
  facet normal 0.793359 0.608754 0
    outer loop
      vertex -3.21739 -2.69971 1
      vertex -3.44044 -2.40902 0
      vertex -3.44044 -2.40902 1
    endloop
  endfacet
  facet normal 0.793359 0.608754 0
    outer loop
      vertex -3.44044 -2.40902 0
      vertex -3.21739 -2.69971 1
      vertex -3.21739 -2.69971 0
    endloop
  endfacet
  facet normal -0.461739 -0.887016 0
    outer loop
      vertex 1.775 3.80649 0
      vertex 2.1 3.63731 1
      vertex 1.775 3.80649 1
    endloop
  endfacet
  facet normal -0.461739 -0.887016 -0
    outer loop
      vertex 2.1 3.63731 1
      vertex 1.775 3.80649 0
      vertex 2.1 3.63731 0
    endloop
  endfacet
  facet normal -0.537305 -0.843388 0
    outer loop
      vertex 2.1 3.63731 0
      vertex 2.40902 3.44044 1
      vertex 2.1 3.63731 1
    endloop
  endfacet
  facet normal -0.537305 -0.843388 -0
    outer loop
      vertex 2.40902 3.44044 1
      vertex 2.1 3.63731 0
      vertex 2.40902 3.44044 0
    endloop
  endfacet
  facet normal 0.608754 -0.793359 0
    outer loop
      vertex -2.69971 3.21739 0
      vertex -2.40902 3.44044 1
      vertex -2.69971 3.21739 1
    endloop
  endfacet
  facet normal 0.608754 -0.793359 0
    outer loop
      vertex -2.40902 3.44044 1
      vertex -2.69971 3.21739 0
      vertex -2.40902 3.44044 0
    endloop
  endfacet
  facet normal -0.923879 -0.382684 0
    outer loop
      vertex 3.94671 1.43648 0
      vertex 3.80649 1.775 1
      vertex 3.80649 1.775 0
    endloop
  endfacet
  facet normal -0.923879 -0.382684 0
    outer loop
      vertex 3.80649 1.775 1
      vertex 3.94671 1.43648 0
      vertex 3.94671 1.43648 1
    endloop
  endfacet
  facet normal 0.537305 0.843388 -0
    outer loop
      vertex -2.1 -3.63731 0
      vertex -2.40902 -3.44044 1
      vertex -2.1 -3.63731 1
    endloop
  endfacet
  facet normal 0.537305 0.843388 0
    outer loop
      vertex -2.40902 -3.44044 1
      vertex -2.1 -3.63731 0
      vertex -2.40902 -3.44044 0
    endloop
  endfacet
  facet normal -0.923879 0.382684 0
    outer loop
      vertex 3.80649 -1.775 0
      vertex 3.94671 -1.43648 1
      vertex 3.94671 -1.43648 0
    endloop
  endfacet
  facet normal -0.923879 0.382684 0
    outer loop
      vertex 3.94671 -1.43648 1
      vertex 3.80649 -1.775 0
      vertex 3.80649 -1.775 1
    endloop
  endfacet
  facet normal -0.382684 -0.923879 0
    outer loop
      vertex 1.43648 3.94671 0
      vertex 1.775 3.80649 1
      vertex 1.43648 3.94671 1
    endloop
  endfacet
  facet normal -0.382684 -0.923879 -0
    outer loop
      vertex 1.775 3.80649 1
      vertex 1.43648 3.94671 0
      vertex 1.775 3.80649 0
    endloop
  endfacet
  facet normal -0.991443 0.13054 0
    outer loop
      vertex 4.13619 -0.729321 0
      vertex 4.18402 -0.366054 1
      vertex 4.18402 -0.366054 0
    endloop
  endfacet
  facet normal -0.991443 0.13054 0
    outer loop
      vertex 4.18402 -0.366054 1
      vertex 4.13619 -0.729321 0
      vertex 4.13619 -0.729321 1
    endloop
  endfacet
  facet normal -0.999048 0.0436132 0
    outer loop
      vertex 4.18402 -0.366054 0
      vertex 4.2 0 1
      vertex 4.2 0 0
    endloop
  endfacet
  facet normal -0.999048 0.0436132 0
    outer loop
      vertex 4.2 0 1
      vertex 4.18402 -0.366054 0
      vertex 4.18402 -0.366054 1
    endloop
  endfacet
  facet normal -0.737274 -0.675594 0
    outer loop
      vertex 3.21739 2.69971 0
      vertex 2.96985 2.96985 1
      vertex 2.96985 2.96985 0
    endloop
  endfacet
  facet normal -0.737274 -0.675594 0
    outer loop
      vertex 2.96985 2.96985 1
      vertex 3.21739 2.69971 0
      vertex 3.21739 2.69971 1
    endloop
  endfacet
  facet normal -0.461739 0.887016 0
    outer loop
      vertex 2.1 -3.63731 0
      vertex 1.775 -3.80649 1
      vertex 2.1 -3.63731 1
    endloop
  endfacet
  facet normal -0.461739 0.887016 0
    outer loop
      vertex 1.775 -3.80649 1
      vertex 2.1 -3.63731 0
      vertex 1.775 -3.80649 0
    endloop
  endfacet
  facet normal -0.537305 0.843388 0
    outer loop
      vertex 2.40902 -3.44044 0
      vertex 2.1 -3.63731 1
      vertex 2.40902 -3.44044 1
    endloop
  endfacet
  facet normal -0.537305 0.843388 0
    outer loop
      vertex 2.1 -3.63731 1
      vertex 2.40902 -3.44044 0
      vertex 2.1 -3.63731 0
    endloop
  endfacet
  facet normal -0.0436132 0.999048 0
    outer loop
      vertex 0.366054 -4.18402 0
      vertex 0 -4.2 1
      vertex 0.366054 -4.18402 1
    endloop
  endfacet
  facet normal -0.0436132 0.999048 0
    outer loop
      vertex 0 -4.2 1
      vertex 0.366054 -4.18402 0
      vertex 0 -4.2 0
    endloop
  endfacet
  facet normal -0.300711 0.953715 0
    outer loop
      vertex 1.43648 -3.94671 0
      vertex 1.08704 -4.05689 1
      vertex 1.43648 -3.94671 1
    endloop
  endfacet
  facet normal -0.300711 0.953715 0
    outer loop
      vertex 1.08704 -4.05689 1
      vertex 1.43648 -3.94671 0
      vertex 1.08704 -4.05689 0
    endloop
  endfacet
  facet normal -0.953715 0.300711 0
    outer loop
      vertex 3.94671 -1.43648 0
      vertex 4.05689 -1.08704 1
      vertex 4.05689 -1.08704 0
    endloop
  endfacet
  facet normal -0.953715 0.300711 0
    outer loop
      vertex 4.05689 -1.08704 1
      vertex 3.94671 -1.43648 0
      vertex 3.94671 -1.43648 1
    endloop
  endfacet
  facet normal -0.843388 0.537305 0
    outer loop
      vertex 3.44044 -2.40902 0
      vertex 3.63731 -2.1 1
      vertex 3.63731 -2.1 0
    endloop
  endfacet
  facet normal -0.843388 0.537305 0
    outer loop
      vertex 3.63731 -2.1 1
      vertex 3.44044 -2.40902 0
      vertex 3.44044 -2.40902 1
    endloop
  endfacet
  facet normal 0.843388 0.537305 0
    outer loop
      vertex -3.44044 -2.40902 1
      vertex -3.63731 -2.1 0
      vertex -3.63731 -2.1 1
    endloop
  endfacet
  facet normal 0.843388 0.537305 0
    outer loop
      vertex -3.63731 -2.1 0
      vertex -3.44044 -2.40902 1
      vertex -3.44044 -2.40902 0
    endloop
  endfacet
  facet normal 0.13054 -0.991443 0
    outer loop
      vertex -0.729321 4.13619 0
      vertex -0.366054 4.18402 1
      vertex -0.729321 4.13619 1
    endloop
  endfacet
  facet normal 0.13054 -0.991443 0
    outer loop
      vertex -0.366054 4.18402 1
      vertex -0.729321 4.13619 0
      vertex -0.366054 4.18402 0
    endloop
  endfacet
  facet normal -0.608754 0.793359 0
    outer loop
      vertex 2.69971 -3.21739 0
      vertex 2.40902 -3.44044 1
      vertex 2.69971 -3.21739 1
    endloop
  endfacet
  facet normal -0.608754 0.793359 0
    outer loop
      vertex 2.40902 -3.44044 1
      vertex 2.69971 -3.21739 0
      vertex 2.40902 -3.44044 0
    endloop
  endfacet
  facet normal 0.0436132 0.999048 -0
    outer loop
      vertex 0 -4.2 0
      vertex -0.366054 -4.18402 1
      vertex 0 -4.2 1
    endloop
  endfacet
  facet normal 0.0436132 0.999048 0
    outer loop
      vertex -0.366054 -4.18402 1
      vertex 0 -4.2 0
      vertex -0.366054 -4.18402 0
    endloop
  endfacet
  facet normal 0.976299 0.216428 0
    outer loop
      vertex -4.05689 -1.08704 1
      vertex -4.13619 -0.729321 0
      vertex -4.13619 -0.729321 1
    endloop
  endfacet
  facet normal 0.976299 0.216428 0
    outer loop
      vertex -4.13619 -0.729321 0
      vertex -4.05689 -1.08704 1
      vertex -4.05689 -1.08704 0
    endloop
  endfacet
  facet normal -0.887016 -0.461739 0
    outer loop
      vertex 3.80649 1.775 0
      vertex 3.63731 2.1 1
      vertex 3.63731 2.1 0
    endloop
  endfacet
  facet normal -0.887016 -0.461739 0
    outer loop
      vertex 3.63731 2.1 1
      vertex 3.80649 1.775 0
      vertex 3.80649 1.775 1
    endloop
  endfacet
  facet normal 0.887016 0.461739 0
    outer loop
      vertex -3.63731 -2.1 1
      vertex -3.80649 -1.775 0
      vertex -3.80649 -1.775 1
    endloop
  endfacet
  facet normal 0.887016 0.461739 0
    outer loop
      vertex -3.80649 -1.775 0
      vertex -3.63731 -2.1 1
      vertex -3.63731 -2.1 0
    endloop
  endfacet
  facet normal -0.843388 -0.537305 0
    outer loop
      vertex 3.63731 2.1 0
      vertex 3.44044 2.40902 1
      vertex 3.44044 2.40902 0
    endloop
  endfacet
  facet normal -0.843388 -0.537305 0
    outer loop
      vertex 3.44044 2.40902 1
      vertex 3.63731 2.1 0
      vertex 3.63731 2.1 1
    endloop
  endfacet
  facet normal -0.0436132 -0.999048 0
    outer loop
      vertex 0 4.2 0
      vertex 0.366054 4.18402 1
      vertex 0 4.2 1
    endloop
  endfacet
  facet normal -0.0436132 -0.999048 -0
    outer loop
      vertex 0.366054 4.18402 1
      vertex 0 4.2 0
      vertex 0.366054 4.18402 0
    endloop
  endfacet
  facet normal 0.675594 -0.737274 0
    outer loop
      vertex -2.96985 2.96985 0
      vertex -2.69971 3.21739 1
      vertex -2.96985 2.96985 1
    endloop
  endfacet
  facet normal 0.675594 -0.737274 0
    outer loop
      vertex -2.69971 3.21739 1
      vertex -2.96985 2.96985 0
      vertex -2.69971 3.21739 0
    endloop
  endfacet
  facet normal 0.843388 -0.537305 0
    outer loop
      vertex -3.63731 2.1 1
      vertex -3.44044 2.40902 0
      vertex -3.44044 2.40902 1
    endloop
  endfacet
  facet normal 0.843388 -0.537305 0
    outer loop
      vertex -3.44044 2.40902 0
      vertex -3.63731 2.1 1
      vertex -3.63731 2.1 0
    endloop
  endfacet
  facet normal 0.300711 -0.953715 0
    outer loop
      vertex -1.43648 3.94671 0
      vertex -1.08704 4.05689 1
      vertex -1.43648 3.94671 1
    endloop
  endfacet
  facet normal 0.300711 -0.953715 0
    outer loop
      vertex -1.08704 4.05689 1
      vertex -1.43648 3.94671 0
      vertex -1.08704 4.05689 0
    endloop
  endfacet
  facet normal 0.999048 0.0436132 0
    outer loop
      vertex -4.18402 -0.366054 1
      vertex -4.2 0 0
      vertex -4.2 0 1
    endloop
  endfacet
  facet normal 0.999048 0.0436132 0
    outer loop
      vertex -4.2 0 0
      vertex -4.18402 -0.366054 1
      vertex -4.18402 -0.366054 0
    endloop
  endfacet
  facet normal 0.216428 0.976299 -0
    outer loop
      vertex -0.729321 -4.13619 0
      vertex -1.08704 -4.05689 1
      vertex -0.729321 -4.13619 1
    endloop
  endfacet
  facet normal 0.216428 0.976299 0
    outer loop
      vertex -1.08704 -4.05689 1
      vertex -0.729321 -4.13619 0
      vertex -1.08704 -4.05689 0
    endloop
  endfacet
  facet normal 0.0436132 -0.999048 0
    outer loop
      vertex -0.366054 4.18402 0
      vertex 0 4.2 1
      vertex -0.366054 4.18402 1
    endloop
  endfacet
  facet normal 0.0436132 -0.999048 0
    outer loop
      vertex 0 4.2 1
      vertex -0.366054 4.18402 0
      vertex 0 4.2 0
    endloop
  endfacet
  facet normal -0.216428 -0.976299 0
    outer loop
      vertex 0.729321 4.13619 0
      vertex 1.08704 4.05689 1
      vertex 0.729321 4.13619 1
    endloop
  endfacet
  facet normal -0.216428 -0.976299 -0
    outer loop
      vertex 1.08704 4.05689 1
      vertex 0.729321 4.13619 0
      vertex 1.08704 4.05689 0
    endloop
  endfacet
  facet normal -0.300711 -0.953715 0
    outer loop
      vertex 1.08704 4.05689 0
      vertex 1.43648 3.94671 1
      vertex 1.08704 4.05689 1
    endloop
  endfacet
  facet normal -0.300711 -0.953715 -0
    outer loop
      vertex 1.43648 3.94671 1
      vertex 1.08704 4.05689 0
      vertex 1.43648 3.94671 0
    endloop
  endfacet
  facet normal -0.216428 0.976299 0
    outer loop
      vertex 1.08704 -4.05689 0
      vertex 0.729321 -4.13619 1
      vertex 1.08704 -4.05689 1
    endloop
  endfacet
  facet normal -0.216428 0.976299 0
    outer loop
      vertex 0.729321 -4.13619 1
      vertex 1.08704 -4.05689 0
      vertex 0.729321 -4.13619 0
    endloop
  endfacet
  facet normal 0.737274 0.675594 0
    outer loop
      vertex -2.96985 -2.96985 1
      vertex -3.21739 -2.69971 0
      vertex -3.21739 -2.69971 1
    endloop
  endfacet
  facet normal 0.737274 0.675594 0
    outer loop
      vertex -3.21739 -2.69971 0
      vertex -2.96985 -2.96985 1
      vertex -2.96985 -2.96985 0
    endloop
  endfacet
  facet normal 0.991443 0.13054 0
    outer loop
      vertex -4.13619 -0.729321 1
      vertex -4.18402 -0.366054 0
      vertex -4.18402 -0.366054 1
    endloop
  endfacet
  facet normal 0.991443 0.13054 0
    outer loop
      vertex -4.18402 -0.366054 0
      vertex -4.13619 -0.729321 1
      vertex -4.13619 -0.729321 0
    endloop
  endfacet
  facet normal 0.953715 -0.300711 0
    outer loop
      vertex -4.05689 1.08704 1
      vertex -3.94671 1.43648 0
      vertex -3.94671 1.43648 1
    endloop
  endfacet
  facet normal 0.953715 -0.300711 0
    outer loop
      vertex -3.94671 1.43648 0
      vertex -4.05689 1.08704 1
      vertex -4.05689 1.08704 0
    endloop
  endfacet
  facet normal 0.976299 -0.216428 0
    outer loop
      vertex -4.13619 0.729321 1
      vertex -4.05689 1.08704 0
      vertex -4.05689 1.08704 1
    endloop
  endfacet
  facet normal 0.976299 -0.216428 0
    outer loop
      vertex -4.05689 1.08704 0
      vertex -4.13619 0.729321 1
      vertex -4.13619 0.729321 0
    endloop
  endfacet
  facet normal 0.923879 0.382684 0
    outer loop
      vertex -3.80649 -1.775 1
      vertex -3.94671 -1.43648 0
      vertex -3.94671 -1.43648 1
    endloop
  endfacet
  facet normal 0.923879 0.382684 0
    outer loop
      vertex -3.94671 -1.43648 0
      vertex -3.80649 -1.775 1
      vertex -3.80649 -1.775 0
    endloop
  endfacet
  facet normal -0.887016 0.461739 0
    outer loop
      vertex 3.63731 -2.1 0
      vertex 3.80649 -1.775 1
      vertex 3.80649 -1.775 0
    endloop
  endfacet
  facet normal -0.887016 0.461739 0
    outer loop
      vertex 3.80649 -1.775 1
      vertex 3.63731 -2.1 0
      vertex 3.63731 -2.1 1
    endloop
  endfacet
  facet normal -0.675594 -0.737274 0
    outer loop
      vertex 2.69971 3.21739 0
      vertex 2.96985 2.96985 1
      vertex 2.69971 3.21739 1
    endloop
  endfacet
  facet normal -0.675594 -0.737274 -0
    outer loop
      vertex 2.96985 2.96985 1
      vertex 2.69971 3.21739 0
      vertex 2.96985 2.96985 0
    endloop
  endfacet
  facet normal 0.675594 0.737274 -0
    outer loop
      vertex -2.69971 -3.21739 0
      vertex -2.96985 -2.96985 1
      vertex -2.69971 -3.21739 1
    endloop
  endfacet
  facet normal 0.675594 0.737274 0
    outer loop
      vertex -2.96985 -2.96985 1
      vertex -2.69971 -3.21739 0
      vertex -2.96985 -2.96985 0
    endloop
  endfacet
  facet normal -0.976299 -0.216428 0
    outer loop
      vertex 4.13619 0.729321 0
      vertex 4.05689 1.08704 1
      vertex 4.05689 1.08704 0
    endloop
  endfacet
  facet normal -0.976299 -0.216428 0
    outer loop
      vertex 4.05689 1.08704 1
      vertex 4.13619 0.729321 0
      vertex 4.13619 0.729321 1
    endloop
  endfacet
  facet normal 0.737274 -0.675594 0
    outer loop
      vertex -3.21739 2.69971 1
      vertex -2.96985 2.96985 0
      vertex -2.96985 2.96985 1
    endloop
  endfacet
  facet normal 0.737274 -0.675594 0
    outer loop
      vertex -2.96985 2.96985 0
      vertex -3.21739 2.69971 1
      vertex -3.21739 2.69971 0
    endloop
  endfacet
  facet normal 0.991443 -0.13054 0
    outer loop
      vertex -4.18402 0.366054 1
      vertex -4.13619 0.729321 0
      vertex -4.13619 0.729321 1
    endloop
  endfacet
  facet normal 0.991443 -0.13054 0
    outer loop
      vertex -4.13619 0.729321 0
      vertex -4.18402 0.366054 1
      vertex -4.18402 0.366054 0
    endloop
  endfacet
  facet normal 0.999048 -0.0436132 0
    outer loop
      vertex -4.2 0 1
      vertex -4.18402 0.366054 0
      vertex -4.18402 0.366054 1
    endloop
  endfacet
  facet normal 0.999048 -0.0436132 0
    outer loop
      vertex -4.18402 0.366054 0
      vertex -4.2 0 1
      vertex -4.2 0 0
    endloop
  endfacet
  facet normal 0.300711 0.953715 -0
    outer loop
      vertex -1.08704 -4.05689 0
      vertex -1.43648 -3.94671 1
      vertex -1.08704 -4.05689 1
    endloop
  endfacet
  facet normal 0.300711 0.953715 0
    outer loop
      vertex -1.43648 -3.94671 1
      vertex -1.08704 -4.05689 0
      vertex -1.43648 -3.94671 0
    endloop
  endfacet
  facet normal 0.382684 0.923879 -0
    outer loop
      vertex -1.43648 -3.94671 0
      vertex -1.775 -3.80649 1
      vertex -1.43648 -3.94671 1
    endloop
  endfacet
  facet normal 0.382684 0.923879 0
    outer loop
      vertex -1.775 -3.80649 1
      vertex -1.43648 -3.94671 0
      vertex -1.775 -3.80649 0
    endloop
  endfacet
  facet normal 0.382684 -0.923879 0
    outer loop
      vertex -1.775 3.80649 0
      vertex -1.43648 3.94671 1
      vertex -1.775 3.80649 1
    endloop
  endfacet
  facet normal 0.382684 -0.923879 0
    outer loop
      vertex -1.43648 3.94671 1
      vertex -1.775 3.80649 0
      vertex -1.43648 3.94671 0
    endloop
  endfacet
  facet normal 0.461739 0.887016 -0
    outer loop
      vertex -1.775 -3.80649 0
      vertex -2.1 -3.63731 1
      vertex -1.775 -3.80649 1
    endloop
  endfacet
  facet normal 0.461739 0.887016 0
    outer loop
      vertex -2.1 -3.63731 1
      vertex -1.775 -3.80649 0
      vertex -2.1 -3.63731 0
    endloop
  endfacet
endsolid OpenSCAD_Model
