solid OpenSCAD_Model
  facet normal 0 0 -1
    outer loop
      vertex -17 51 0
      vertex 17 51 0
      vertex 17 49 0
    endloop
  endfacet
  facet normal 0 0 -1
    outer loop
      vertex -17 51 0
      vertex 17 49 0
      vertex -17 49 0
    endloop
  endfacet
  facet normal 0 0 -1
    outer loop
      vertex -14.7181 48.8 0
      vertex 2.2581 13.2 0
      vertex -2.2581 13.2 0
    endloop
  endfacet
  facet normal 0 0 -1
    outer loop
      vertex -14.7181 48.8 0
      vertex 14.7181 48.8 0
      vertex 2.2581 13.2 0
    endloop
  endfacet
  facet normal 0 -0 1
    outer loop
      vertex 17 49 11.5
      vertex 17 51 11.5
      vertex -17 51 11.5
    endloop
  endfacet
  facet normal 0 0 1
    outer loop
      vertex -17 49 11.5
      vertex 17 49 11.5
      vertex -17 51 11.5
    endloop
  endfacet
  facet normal 0 -0 1
    outer loop
      vertex -2.2581 13.2 11.5
      vertex 2.2581 13.2 11.5
      vertex -14.7181 48.8 11.5
    endloop
  endfacet
  facet normal 0 -0 1
    outer loop
      vertex 2.2581 13.2 11.5
      vertex 14.7181 48.8 11.5
      vertex -14.7181 48.8 11.5
    endloop
  endfacet
  facet normal 0 1 0
    outer loop
      vertex -17 51 0
      vertex 17 51 11.5
      vertex 17 51 0
    endloop
  endfacet
  facet normal 0 1 0
    outer loop
      vertex -17 51 0
      vertex -17 51 11.5
      vertex 17 51 11.5
    endloop
  endfacet
  facet normal -1 0 0
    outer loop
      vertex -17 49 0
      vertex -17 51 11.5
      vertex -17 51 0
    endloop
  endfacet
  facet normal -1 0 0
    outer loop
      vertex -17 49 0
      vertex -17 49 11.5
      vertex -17 51 11.5
    endloop
  endfacet
  facet normal 0 -1 0
    outer loop
      vertex 17 49 0
      vertex -17 49 11.5
      vertex -17 49 0
    endloop
  endfacet
  facet normal 0 -1 0
    outer loop
      vertex 17 49 0
      vertex 17 49 11.5
      vertex -17 49 11.5
    endloop
  endfacet
  facet normal 1 0 0
    outer loop
      vertex 17 51 0
      vertex 17 49 11.5
      vertex 17 49 0
    endloop
  endfacet
  facet normal 1 0 -0
    outer loop
      vertex 17 51 0
      vertex 17 51 11.5
      vertex 17 49 11.5
    endloop
  endfacet
  facet normal 0 1 0
    outer loop
      vertex -14.7181 48.8 0
      vertex 14.7181 48.8 11.5
      vertex 14.7181 48.8 0
    endloop
  endfacet
  facet normal 0 1 0
    outer loop
      vertex -14.7181 48.8 0
      vertex -14.7181 48.8 11.5
      vertex 14.7181 48.8 11.5
    endloop
  endfacet
  facet normal -0.943858 -0.33035 0
    outer loop
      vertex -2.2581 13.2 0
      vertex -14.7181 48.8 11.5
      vertex -14.7181 48.8 0
    endloop
  endfacet
  facet normal -0.943858 -0.33035 0
    outer loop
      vertex -2.2581 13.2 0
      vertex -2.2581 13.2 11.5
      vertex -14.7181 48.8 11.5
    endloop
  endfacet
  facet normal 0 -1 0
    outer loop
      vertex 2.2581 13.2 0
      vertex -2.2581 13.2 11.5
      vertex -2.2581 13.2 0
    endloop
  endfacet
  facet normal 0 -1 0
    outer loop
      vertex 2.2581 13.2 0
      vertex 2.2581 13.2 11.5
      vertex -2.2581 13.2 11.5
    endloop
  endfacet
  facet normal 0.943858 -0.33035 0
    outer loop
      vertex 14.7181 48.8 0
      vertex 2.2581 13.2 11.5
      vertex 2.2581 13.2 0
    endloop
  endfacet
  facet normal 0.943858 -0.33035 0
    outer loop
      vertex 14.7181 48.8 0
      vertex 14.7181 48.8 11.5
      vertex 2.2581 13.2 11.5
    endloop
  endfacet
endsolid OpenSCAD_Model
